<svg width="40" height="40" viewBox="0 0 40 40" fill="none" xmlns="http://www.w3.org/2000/svg">
  <defs>
    <linearGradient id="dinoGradient" x1="0%" y1="0%" x2="100%" y2="100%">
      <stop offset="0%" style="stop-color:#667eea"/>
      <stop offset="100%" style="stop-color:#764ba2"/>
    </linearGradient>
  </defs>
  <!-- Background circle -->
  <circle cx="20" cy="20" r="18" fill="url(#dinoGradient)"/>
  <!-- Dino silhouette -->
  <path d="M12 28V22C12 18 14 16 16 15C14 14 13 12 14 10C15 8 18 8 20 9C22 8 25 8 26 10C27 12 26 14 24 15C26 16 28 18 28 22V28C28 29 27 30 26 30H14C13 30 12 29 12 28Z" fill="white" fill-opacity="0.95"/>
  <!-- Eye -->
  <circle cx="22" cy="14" r="2" fill="url(#dinoGradient)"/>
  <!-- Spikes -->
  <path d="M16 10L17 7L18 10" fill="white" fill-opacity="0.9"/>
  <path d="M19 9L20 6L21 9" fill="white" fill-opacity="0.9"/>
  <path d="M22 10L23 7L24 10" fill="white" fill-opacity="0.9"/>
</svg>
