<?xml version="1.0" encoding="UTF-8"?>
<svg id="Layer_1" data-name="Layer 1" xmlns="http://www.w3.org/2000/svg" width="357.224" height="381.016" xmlns:xlink="http://www.w3.org/1999/xlink" viewBox="0 0 357.224 381.016">
  <defs>
    <linearGradient id="linear-gradient" x1="112.872" y1="23.394" x2="140.421" y2="71.111" gradientUnits="userSpaceOnUse">
      <stop offset=".798" stop-color="#9d46d9"/>
      <stop offset="1" stop-color="#6382ef"/>
    </linearGradient>
    <linearGradient id="linear-gradient-2" x1="5.207" y1="234.437" x2="344.577" y2="234.437" gradientUnits="userSpaceOnUse">
      <stop offset="0" stop-color="#8594d9"/>
      <stop offset="1" stop-color="#6382ef"/>
    </linearGradient>
    <linearGradient id="linear-gradient-3" x1="77.976" y1="169.346" x2="352.662" y2="169.346" gradientUnits="userSpaceOnUse">
      <stop offset="0" stop-color="#9d46d9"/>
      <stop offset="1" stop-color="#6382ef"/>
    </linearGradient>
  </defs>
  <polygon points="189.881 36.618 190.103 31.966 174.818 12.473 155.767 6.491 137.824 12.473 132.286 47.03 130.071 52.568 90.418 38.169 78.456 43.264 79.342 68.739 86.21 102.41 105.039 73.391 131.843 52.568 160.198 43.264 189.881 36.618" style="fill: url(#linear-gradient);"/>
  <polygon points="85.25 107.284 73.14 99.013 55.418 95.174 24.211 132.371 41.476 157.857 37.145 181.09 5.207 194.71 11.536 243.354 38.583 246.103 50.285 267.471 39.764 297.496 44.49 308.129 74.617 335.598 96.769 320.239 127.095 331.641 132.507 361.294 166.179 373.699 184.087 372.261 196.444 351.233 211.96 371.927 235.589 367.792 253.901 358.636 259.288 328.871 281.96 316.104 312.382 324.965 344.577 287.159 331.172 264.884 330.695 230.449 282.846 256.441 247.698 279.479 217.571 297.792 189.808 302.813 146.389 295.133 112.451 273.627 84.659 236.061 74.912 199.141 77.57 139.773 85.25 107.284" style="fill: url(#linear-gradient-2);"/>
  <path d="M151.521,48.839l-41.646,24.367-21.266,38.988-10.633,58.038.517,53.313,28.576,45.412,51.984,31.087,44.304,2.215,31.899-15.063,25.696-17.279,15.95-11.076,33.228-16.836,34.557-26.139,7.975-51.393s-16.393-27.469-19.051-27.912-31.456-13.734-31.456-13.734l-4.873-38.988-26.583-32.785-63.798-14.62-55.38,12.405Z" style="fill: url(#linear-gradient-3);"/>
  <path d="M130.948,54.137s0-38.545,11.224-45.633,29.684-5.76,55.38,28.355" style="fill: none; stroke: #123a41; stroke-miterlimit: 10; stroke-width: 10px;"/>
  <path d="M172.261,255.906s36.772,23.924,88.608,8.418,81.077-37.659,88.165-66.013c1.263-5.054,9.335-33.389-8.035-53.544-9.37-10.872-23.575-15.478-31.386-17.103-2.119-.441-3.718-2.169-3.969-4.319-1.783-15.252-5.273-35.271-19.965-56.618-1.311-1.905-2.242-3.257-3.544-4.873-29.288-36.342-99.871-24.104-103.229-23.481-15.911,2.951-52.236,9.688-76.646,40.76-16.596,21.125-19.701,43.335-23.924,73.545-3.023,21.619-5.913,42.294,1.772,67.785,2.952,9.792,10.387,33.37,32.342,53.165,2.994,2.699,44.264,38.665,97.469,25.696,26.48-6.455,48.817-28.686,56.562-36.772" style="fill: none; stroke: #16393f; stroke-miterlimit: 10; stroke-width: 10px;"/>
  <ellipse cx="179.47" cy="130.469" rx="14.177" ry="22.595" style="fill: #16393f;"/>
  <ellipse cx="277.639" cy="124.067" rx="12.662" ry="20.18" style="fill: #16393f;"/>
  <path d="M335.227,223.785l-6.167,32.375c-.586,3.077.184,6.257,2.111,8.725l12.584,16.112c2.263,2.898,2.204,6.98-.141,9.811l-25.579,30.872c-2.782,3.357-7.409,4.542-11.462,2.936l-21.68-8.594c-2.694-1.068-5.742-.728-8.134.907l-17.471,11.942c-1.283.877-2.081,2.304-2.156,3.856l-1.127,23.215c-.138,2.839-2.06,5.279-4.788,6.077l-33.437,9.781c-3.176.929-6.574-.452-8.202-3.334l-9.714-17.203c-.748-1.324-2.649-1.341-3.42-.029l-12.357,21.028c-1.642,2.795-4.875,4.243-8.054,3.607l-40.574-8.115c-1.683-.337-2.933-1.758-3.053-3.47l-1.917-27.552c-.152-2.178-1.443-4.114-3.396-5.09l-23.196-11.598c-.888-.444-1.937-.428-2.812.043l-25.303,13.625c-2.384,1.284-5.328.845-7.235-1.077l-29.213-29.454c-1.968-1.984-2.411-5.02-1.092-7.484l11.818-22.076c1.02-1.905,1.102-4.175.222-6.149l-9.413-21.115c-.075-.168-.234-.282-.417-.299l-28.92-2.703c-1.384-.129-2.479-1.227-2.605-2.612l-3.913-43.04c-.178-1.953.971-3.784,2.806-4.474l27.947-10.512c.709-.267,1.229-.882,1.374-1.626l4.44-22.757c.033-.169-.005-.34-.11-.477-1.727-2.252-16.708-21.868-17.265-25.486-.526-3.417,26.558-33.508,32.52-40.085.686-.756,1.779-.986,2.711-.569l24.561,10.97s-14.325-55.233-2.068-64.093,46.519,17.279,46.519,17.279" style="fill: none; stroke: #16393f; stroke-miterlimit: 10; stroke-width: 10px;"/>
  <path d="M194.62,94.776s-14.288,13.882-35.997,16.762" style="fill: none; stroke: #143840; stroke-linecap: round; stroke-miterlimit: 10; stroke-width: 10px;"/>
  <path d="M264.879,99.28s7.753,10.411,22.595,12.405" style="fill: none; stroke: #143840; stroke-linecap: round; stroke-miterlimit: 10; stroke-width: 10px;"/>
  <path d="M191.556,212.256s50.507-43.972,82.406-4.873" style="fill: none; stroke: #143840; stroke-linecap: round; stroke-miterlimit: 10; stroke-width: 10px;"/>
  <ellipse cx="183.212" cy="128.754" rx="14.165" ry="21.983" style="fill: #143840;"/>
  <ellipse cx="276.57" cy="127.401" rx="13.598" ry="20.605" style="fill: #143840;"/>
  <ellipse cx="305.33" cy="170.931" rx="6.989" ry="6.909" style="fill: #143840;"/>
</svg>