<?xml version="1.0" encoding="UTF-8"?>
<svg id="Layer_1" data-name="Layer 1" xmlns="http://www.w3.org/2000/svg" width="374.503" height="395.583" xmlns:xlink="http://www.w3.org/1999/xlink" viewBox="0 0 374.503 395.583">
  <defs>
    <linearGradient id="linear-gradient" x1="112.872" y1="23.341" x2="140.421" y2="71.058" gradientUnits="userSpaceOnUse">
      <stop offset=".798" stop-color="#9d46d9"/>
      <stop offset="1" stop-color="#6382ef"/>
    </linearGradient>
    <linearGradient id="linear-gradient-2" x1="5.207" y1="234.383" x2="344.577" y2="234.383" gradientUnits="userSpaceOnUse">
      <stop offset="0" stop-color="#8594d9"/>
      <stop offset="1" stop-color="#6382ef"/>
    </linearGradient>
    <linearGradient id="linear-gradient-3" x1="77.976" y1="169.293" x2="352.662" y2="169.293" gradientUnits="userSpaceOnUse">
      <stop offset="0" stop-color="#9d46d9"/>
      <stop offset="1" stop-color="#6382ef"/>
    </linearGradient>
    <linearGradient id="linear-gradient-4" x1="249.148" y1="286.563" x2="315.259" y2="286.563" xlink:href="#linear-gradient-3"/>
  </defs>
  <polygon points="189.881 36.565 190.103 31.913 174.818 12.419 155.767 6.438 137.824 12.419 132.286 46.976 130.071 52.514 90.418 38.116 78.456 43.211 79.342 68.685 86.21 102.357 105.039 73.337 131.843 52.514 160.198 43.211 189.881 36.565" style="fill: url(#linear-gradient);"/>
  <polygon points="85.25 107.23 73.14 98.96 55.418 95.12 24.211 132.317 41.476 157.803 37.145 181.037 5.207 194.657 11.536 243.301 38.583 246.05 50.285 267.418 39.764 297.443 44.49 308.076 74.617 335.544 96.769 320.186 127.095 331.587 132.507 361.241 166.179 373.646 184.087 372.208 196.444 351.18 211.96 371.874 235.589 367.739 253.901 358.583 259.288 328.817 281.96 316.051 312.382 324.911 344.577 287.105 331.172 264.831 330.695 230.396 282.846 256.388 247.698 279.426 217.571 297.738 189.808 302.759 146.389 295.08 112.451 273.574 84.659 236.008 74.912 199.088 77.57 139.72 85.25 107.23" style="fill: url(#linear-gradient-2);"/>
  <path d="M151.521,48.786l-41.646,24.367-21.266,38.988-10.633,58.038.517,53.313,28.576,45.412,51.984,31.087,44.304,2.215,31.899-15.063,25.696-17.279,15.95-11.076,33.228-16.836,34.557-26.139,7.975-51.393s-16.393-27.469-19.051-27.912-31.456-13.734-31.456-13.734l-4.873-38.988-26.583-32.785-63.798-14.62-55.38,12.405Z" style="fill: url(#linear-gradient-3);"/>
  <path d="M130.948,54.084s0-38.545,11.224-45.633,29.684-5.76,55.38,28.355" style="fill: none; stroke: #123a41; stroke-miterlimit: 10; stroke-width: 10px;"/>
  <path d="M172.261,255.852s36.772,23.924,88.608,8.418,81.077-37.659,88.165-66.013c1.263-5.054,9.335-33.389-8.035-53.544-9.37-10.872-23.575-15.478-31.386-17.103-2.119-.441-3.718-2.169-3.969-4.319-1.783-15.252-5.273-35.271-19.965-56.618-1.311-1.905-2.242-3.257-3.544-4.873-29.288-36.342-99.871-24.104-103.229-23.481-15.911,2.951-52.236,9.688-76.646,40.76-16.596,21.125-19.701,43.335-23.924,73.545-3.023,21.619-5.913,42.294,1.772,67.785,2.952,9.792,10.387,33.37,32.342,53.165,2.994,2.699,44.264,38.665,97.469,25.696,26.48-6.455,48.817-28.686,56.562-36.772" style="fill: none; stroke: #16393f; stroke-miterlimit: 10; stroke-width: 10px;"/>
  <path d="M335.227,223.732l-6.167,32.375c-.586,3.077.184,6.257,2.111,8.725l12.584,16.112c2.263,2.898,2.204,6.98-.141,9.811l-25.579,30.872c-2.782,3.357-7.409,4.542-11.462,2.936l-21.68-8.594c-2.694-1.068-5.742-.728-8.134.907l-17.471,11.942c-1.283.877-2.081,2.304-2.156,3.856l-1.127,23.215c-.138,2.839-2.06,5.279-4.788,6.077l-33.437,9.781c-3.176.929-6.574-.452-8.202-3.334l-9.714-17.203c-.748-1.324-2.649-1.341-3.42-.029l-12.357,21.028c-1.642,2.795-4.875,4.243-8.054,3.607l-40.574-8.115c-1.683-.337-2.933-1.758-3.053-3.47l-1.917-27.552c-.152-2.178-1.443-4.114-3.396-5.09l-23.196-11.598c-.888-.444-1.937-.428-2.812.043l-25.303,13.625c-2.384,1.284-5.328.845-7.235-1.077l-29.213-29.454c-1.968-1.984-2.411-5.02-1.092-7.484l11.818-22.076c1.02-1.905,1.102-4.175.222-6.149l-9.413-21.115c-.075-.168-.234-.282-.417-.299l-28.92-2.703c-1.384-.129-2.479-1.227-2.605-2.612l-3.913-43.04c-.178-1.953.971-3.784,2.806-4.474l27.947-10.512c.709-.267,1.229-.882,1.374-1.626l4.44-22.757c.033-.169-.005-.34-.11-.477-1.727-2.252-16.708-21.868-17.265-25.486-.526-3.417,26.558-33.508,32.52-40.085.686-.756,1.779-.986,2.711-.569l24.561,10.97s-14.325-55.233-2.068-64.093,46.519,17.279,46.519,17.279" style="fill: none; stroke: #16393f; stroke-miterlimit: 10; stroke-width: 10px;"/>
  <ellipse cx="183.212" cy="128.701" rx="14.165" ry="21.983" style="fill: #143840;"/>
  <ellipse cx="305.33" cy="170.877" rx="6.989" ry="6.909" style="fill: #143840;"/>
  <ellipse cx="270.187" cy="126.729" rx="13.146" ry="18.273" style="fill: #143840;"/>
  <path d="M162.708,97.188s16.171-14.177,29.019-7.532" style="fill: none; stroke: #143840; stroke-linecap: round; stroke-linejoin: round; stroke-width: 10px;"/>
  <path d="M259.734,90.764s17.5-3.987,23.924,5.76" style="fill: none; stroke: #143840; stroke-linecap: round; stroke-linejoin: round; stroke-width: 10px;"/>
  <path d="M218.458,205.881s25.401-24.515,50.507-8.861" style="fill: none; stroke: #143840; stroke-linecap: round; stroke-linejoin: round; stroke-width: 10px;"/>
  <path d="M266.958,348.45l37.188-.374c5.851-.059,10.576-4.794,10.623-10.645l.49-61.251c.011-1.357-.233-2.697-.724-3.962-2.848-7.338-12.971-33.32-13.732-33.828-.664-.443-16.436-8.523-24.289-12.539-2.769-1.416-6.015-1.562-8.9-.399l-5.85,2.359c-4.637,1.87-7.369,6.694-6.586,11.633l1.84,11.606c.425,2.683-.183,5.428-1.702,7.68l-4.333,6.425c-1.217,1.804-1.856,3.936-1.834,6.112l.211,20.229c.032,3.045,1.355,5.933,3.641,7.944l.056.05c2.37,2.085,7.735,6.129,7.674,9.285l-4.61,28.735c-.117,6.049,4.787,10.999,10.837,10.938Z" style="fill: url(#linear-gradient-4);"/>
  <path d="M319.065,343.63s.849-54.457-2.104-68.339c-2.954-13.882-5.021-55.823-49.621-54.051,0,0-17.722,2.658-11.519,18.017-.172,4.332,8.842,10.136,12.868,12.508.198.116,10.612,7.603,10.391,7.539-4.274-1.241-26.45-9.557-29.868,2.068-4.43,15.063-3.138,35.48,3.36,39.615,6.498,4.135,10.781,4.689,10.781,4.689l-7.716,52.057" style="fill: none; stroke: #143840; stroke-linecap: round; stroke-linejoin: round; stroke-width: 10px;"/>
</svg>