<?xml version="1.0" encoding="UTF-8"?>
<svg id="Layer_1" data-name="Layer 1" xmlns="http://www.w3.org/2000/svg" width="454.3" height="439.9" xmlns:xlink="http://www.w3.org/1999/xlink" viewBox="0 0 454.3 439.9">
  <defs>
    <linearGradient id="linear-gradient" x1="96" y1="310.3" x2="149" y2="310.3" gradientUnits="userSpaceOnUse">
      <stop offset="0" stop-color="#7075ea"/>
      <stop offset="1" stop-color="#994ada"/>
    </linearGradient>
    <linearGradient id="linear-gradient-2" x1="89.1" y1="337.9" x2="430.6" y2="337.9" xlink:href="#linear-gradient"/>
    <linearGradient id="linear-gradient-3" x1="69.9" y1="163.3" x2="306.8" y2="163.3" xlink:href="#linear-gradient"/>
    <linearGradient id="linear-gradient-4" x1="88" y1="174.7" x2="90.4" y2="174.7" xlink:href="#linear-gradient"/>
    <linearGradient id="linear-gradient-5" x1="117.1" y1="176.4" x2="123.3" y2="176.4" xlink:href="#linear-gradient"/>
    <linearGradient id="linear-gradient-6" x1="151.3" y1="237.6" x2="327.2" y2="237.6" gradientUnits="userSpaceOnUse">
      <stop offset="0" stop-color="#8594d9"/>
      <stop offset="1" stop-color="#6382ef"/>
    </linearGradient>
  </defs>
  <path d="M65,407.3s-46.1,3.8-29.1,10.3c17,6.5,135.4,13,151.4,14.7s37.4,9.7,81.4,6.5c44-3.2,108.4-14.9,115-15.4s59.2-8.2,58.2-12-4.5-8-36.4-8.8c-31.9-.9-245.2,2.6-245.2,2.6l-95.2,2.1h0Z" style="fill: #8e8e8e; isolation: isolate; opacity: .5;"/>
  <path d="M141.9,285.5s-33.5-12.3-42.3,14.6-.2,24.9,14.7,31.8c15.9,7.4,22.5,5.9,22.5,5.9l10.6-32.2,1.6-10.5-7.1-9.6Z" style="fill: url(#linear-gradient); stroke: #291a43; stroke-miterlimit: 10; stroke-width: 5px;"/>
  <g>
    <path d="M113.5,278.3s14.5.3,19.9,3.3c5.5,3.1,14.5,11.9,10.5,32.9,0,0-3.7,23.4-31.3,26.2l-2.2.2.3-12.9s15.9-.5,18.5-8.8c2.3-7.4,6-21.5-4.4-26.3s-4.4-1.3-6.6-1.2l-6.5.2.4-13.7h1.4Z" style="fill: #fcdfb7; stroke: #302a51; stroke-miterlimit: 10; stroke-width: 5px;"/>
    <path d="M11.8,269.3s-2.7-7.8,11.2-9.6c13.9-1.9,66.4-5.6,76.9,0,10.5,5.6,20.2,10,0,14.9-20.2,5-70.3,6.6-88.1-5.3Z" style="fill: #f6f1d1;"/>
    <path d="M19.4,271.6s-4.7-6.3,7.7-7.8,59.1-4.3,68.5,0c9.3,4.3,18,7.7,0,11.6-18,3.9-60.3,5.4-76.1-3.8Z" style="fill: #fcdfb7;"/>
    <path d="M25,274.6s-4.1-3.3,6.6-4.1c10.7-.8,50.9-2.3,58.9,0,8,2.3,15.5,4.1,0,6.1-15.5,2-51.9,2.9-65.5-2Z" style="fill: #4b2f2b;"/>
    <path d="M109.4,270.9s-10.6,8-49.3,7.4c-38.7-.6-48.9-8-48.9-8l.7,77.2s16.8,27.8,64.8,18.2c0,0,27.7-4.7,33.6-17.9l1.2-78.5-2.1,1.6Z" style="fill: #fcdfb7; stroke: #302a51; stroke-miterlimit: 10; stroke-width: 5px;"/>
    <path d="M11.9,347.4s12.4,23.3,52.4,19.9c40.1-3.5,45.9-19.5,45.9-19.5,0-2.3.1-4.6.2-6.9.6-24.1,1.3-48.2,1.9-72.3-1.6-1.9-3.7-5.1-7.6-6.9-6.9-3.3-20.1-6.3-45-4.9-49.8,2.7-49,10.5-49,10.5,0,0-1.6,33.7,1.2,80.3Z" style="fill: none; stroke: #302a51; stroke-miterlimit: 10; stroke-width: 5px;"/>
    <g>
      <path d="M49.3,336.1s-3.2,1.8,2.3,2.4c6.6.7,10,.6,17.2-.7,0,0,1.9,1.2,4.6,2.2-16.3,6.8-36.8-.4-24-3.9" style="fill: #5382a1;"/>
      <path d="M47.3,327.3s-3.6,2.6,1.9,3.1c7,.7,12.6.8,22.2-1,0,0,1.3,1.3,3.4,2-19.7,5.6-41.6.4-27.5-4.1" style="fill: #5382a1;"/>
      <path d="M64.1,314.6c2.9,3.3-.8,6.2-.8,6.2,0,0,7.5-3.7,4-8.4-3.2-4.4-5.7-6.5,7.6-14,0,0-20.9,5.1-10.9,16.2" style="fill: #f8981d;"/>
      <path d="M88,341.6s2.4,1.9-2.6,3.3c-9.4,2.8-39.1,3.6-47.3.1-3-1.3,2.6-3,4.3-3.4,1.8-.4,2.9-.3,2.9-.3-3.3-2.3-24.5,3.6-12.3,5.5,33.2,5.2,63.6-1.5,55-5.3" style="fill: #5382a1;"/>
      <path d="M50.8,318.1s-15.1,3.5-5.3,4.7c4.1.5,12.3.4,20-.2,6.3-.5,12.5-1.6,12.5-1.6,0,0-2.2.9-3.8,2-15.3,3.9-45,2.1-36.4-1.9,7.2-3.4,13.1-3,13.1-3" style="fill: #5382a1;"/>
      <path d="M77.9,332.8c15.6-7.9,8.4-15.4,3.4-14.4-1.2.2-1.8.5-1.8.5,0,0,.5-.7,1.3-1,10-3.4,17.6,10-3.2,15.3,0,0,.2-.2.3-.4" style="fill: #5382a1;"/>
      <path d="M67.4,286.3s6.3,6.1-6,15.6c-9.9,7.6-2.3,11.9,0,16.8-5.8-5.1-10-9.5-7.2-13.7,4.2-6.1,15.7-9,13.2-18.8" style="fill: #f8981d;"/>
      <path d="M50.9,353.3c15,.9,38-.5,38.5-7.4,0,0-1,2.6-12.4,4.7-12.8,2.3-28.5,2.1-37.9.6,0,0,1.9,1.5,11.8,2.1" style="fill: #5382a1;"/>
    </g>
  </g>
  <path d="M90.4,374.7s7.4,44.8,34,45.1c26.6.2,41.5-12.8,65.8-7.5,24.3,5.3,11.9,6.7,34.6,7.5,0,0,9.9,21.9,36.5,16.2,26.6-5.7,60.6-15.6,66-19,0,0,36.5.6,51.5-9,15-9.6,43.9-32.2,48.2-63.7,4.3-31.5,7.4-65.1-7.8-73.1,0,0-10.1,2-15.7,33.6,0,0-13,32.2-44.9,40.3l-3.5.8s-7.1-27.5-22.3-48.5c-15.1-21-26.1-58.4-26.1-58.4,0,0-35.5,28.7-64.3,37.4-28.9,8.7-65.4,4.1-65.4,4.1,0,0-18.4,7.4-30.8,5.7h-1.8s4,17.9-1,33.3c0,0-17.4-7.8-18.8-.2-1.3,7.6,8.1,21.5,29.5,21.1v9.9c.1,0-18.2,0-26.6,8.5-1.4,1.5-13.2-4.5-17.2-2.1-2.2,1.3-6.7-5.2-16.7-2-7.6,2.5-3.2,20.1-3.2,20.1h0Z" style="fill: url(#linear-gradient-2); stroke: #291a43; stroke-miterlimit: 10; stroke-width: 5px;"/>
  <path d="M237.3,297.4s-42.6,48.3-47,59.8c-2.4,6.2-1.7,12.5.7,16.5s8.9,3.5,10.4-1.2l1.6-5.2s.2,17.5,14.2,17c0,0,3.3-.3,3.8-3s.4-12.4,4.9-14.5c4.3-2,9.1-1.3,11.8,16.4,0,0-.5-22.7,12.4-14,12.9,8.7,19,28.7,19,31.9" style="fill: none; stroke: #291a43; stroke-linecap: round; stroke-miterlimit: 10; stroke-width: 5px;"/>
  <path d="M283.2,310.6s4.3,29.8-36.3,56.9c0,0,28.1-23.2,65-19.4" style="fill: none; stroke: #291a43; stroke-linecap: round; stroke-miterlimit: 10; stroke-width: 5px;"/>
  <path d="M225.1,418.3s-8-26.7-4.7-35.2" style="fill: none; stroke: #291a43; stroke-linecap: round; stroke-miterlimit: 10; stroke-width: 5px;"/>
  <path d="M165.1,284.1s-37.7,106.8,26.4,128.6" style="fill: none; stroke: #291a43; stroke-linecap: round; stroke-miterlimit: 10; stroke-width: 5px;"/>
  <path d="M110.8,358.6s4.1,7.9,4.1,10.5" style="fill: none; stroke: #291a43; stroke-linecap: round; stroke-miterlimit: 10; stroke-width: 5px;"/>
  <path d="M323.6,418.3s22-14.6,22.3-20.2" style="fill: none; stroke: #291a43; stroke-linecap: round; stroke-miterlimit: 10; stroke-width: 5px;"/>
  <path d="M356.3,377.9s.5-30.7-1.9-38.6" style="fill: none; stroke: #291a43; stroke-linecap: round; stroke-miterlimit: 10; stroke-width: 5px;"/>
  <g>
    <path d="M389.3,324.8s15.7-20.5,13.7-22-19.7-17-13.7,22Z" style="fill: #9d45d9; stroke: #291a43; stroke-linecap: round; stroke-miterlimit: 10; stroke-width: 5px;"/>
    <path d="M358.5,344.8s2.4-1.2,5.8-2.9c8.1-4.1,21.9-11.5,23.2-13.8l1.9-3.3s-14.8-9.8-17.1-3.5-15.1,24.1-15.7,24.3,2-.8,2-.8Z" style="fill: #9d45d9; stroke: #291a43; stroke-linecap: round; stroke-miterlimit: 10; stroke-width: 5px;"/>
    <path d="M343.3,310.6s22.7-5.6,23.9,1,5.2,15-8.7,33.2c0,0-11.5-31.1-15.2-34.2Z" style="fill: #9d45d9; stroke: #291a43; stroke-linecap: round; stroke-miterlimit: 10; stroke-width: 5px;"/>
    <path d="M324.5,279.7s22.1-3.3,23.1,3.8c1,7.1-4.3,27.1-4.3,27.1,0,0-16-27.7-18.8-30.9Z" style="fill: #9d45d9; stroke: #291a43; stroke-linecap: round; stroke-miterlimit: 10; stroke-width: 5px;"/>
    <path d="M307.1,240.2s24.9-.1,25,10.4c.1,10.5-8.8,28.5-8.8,28.5,0,0-16.1-30.9-16.2-38.8Z" style="fill: #9d45d9; stroke: #291a43; stroke-linecap: round; stroke-miterlimit: 10; stroke-width: 5px;"/>
    <path d="M303.2,132.9s37.9-3.5,35.3,11.5-1.6,19-31.4,38.1c0,0,1.9-39.5-3.8-49.6Z" style="fill: #9d45d9; stroke: #291a43; stroke-linecap: round; stroke-miterlimit: 10; stroke-width: 5px;"/>
    <path d="M279.3,89.9s27-19,40.2-6.6-15.2,52.1-15.2,52.1c0,0-14.1-41.8-25-45.5Z" style="fill: #9d45d9; stroke: #291a43; stroke-linecap: round; stroke-miterlimit: 10; stroke-width: 5px;"/>
    <path d="M231.5,68.2s29.1-28.9,42.3-23.1c13.2,5.7,5.6,44.8,5.6,44.8,0,0-28.2-20.7-47.8-21.7Z" style="fill: #9d45d9; stroke: #291a43; stroke-linecap: round; stroke-miterlimit: 10; stroke-width: 5px;"/>
    <path d="M184.5,67.1s25.8-35.2,37.7-30.9c12,4.3,9.3,31.9,9.3,31.9,0,0-33-6.9-47-1.1Z" style="fill: #9d45d9; stroke: #291a43; stroke-linecap: round; stroke-miterlimit: 10; stroke-width: 5px;"/>
  </g>
  <path d="M110,135.4s-50,5.2-38.4,57.7c0,0,3.7,33.2,57.3,34.8,0,0-22.2,16.7,61.5,11.9,0,0-22.7-.7-4.2,20.5,18.5,21.2,117-50.6,117-50.6,0,0,18.4-95.4-28.2-122.8-46.7-27.3-126.5-37.8-152.9.3,0,0-10.4,15.1-12.1,48.2Z" style="fill: url(#linear-gradient-3); stroke: #291a43; stroke-linecap: round; stroke-miterlimit: 10; stroke-width: 5px;"/>
  <path d="M88.1,168.6s-.5,9.4,2.3,12.3" style="fill: url(#linear-gradient-4); stroke: #291a43; stroke-linecap: round; stroke-miterlimit: 10; stroke-width: 5px;"/>
  <path d="M123.3,171.9s-2.9,6.3-6.2,9" style="fill: url(#linear-gradient-5); stroke: #291a43; stroke-linecap: round; stroke-miterlimit: 10; stroke-width: 5px;"/>
  <path d="M120.2,228.6s51,6.6,91.6-28.5" style="fill: none; stroke: #291a43; stroke-miterlimit: 10; stroke-width: 5px;"/>
  <path d="M207.9,195.7v-1s-.9,9.5,8.3,9.9c0,0-3-8.3-8.3-8.9Z" style="fill: #291a43;"/>
  <path d="M171,237.6s34.6-.7,38.7-2.3c0,0-9.5,6.7-22,7.8-12.5,1.1-39.9-1.2-43.1-2.8s26.4-2.8,26.4-2.8Z" style="fill: #291a43;"/>
  <path d="M315.5,213.3l1.3-9.8.3-2.1,10.1-6.7-5.7-19.5-14.4,7.3c.3,12.5-20.6,36.6-20.6,36.6h0c-5.8,4.8-11.7,9.8-14.6,12.6-6.9,6.6-65.7,38-75.6,34.1-9.9-3.9-21.1-18.5-21.1-18.5l-20,2.7-3.8,19.8,16.5,2.9-3.9,22.5,17.1,4.8,13.4-17.5,21.7-.2,7.1,14.1,23.5-6.3,1.3-16.5,21.1-9.3,13.3,11.6,19.2-15.5-2.8-15.5,12-10.9,12.8-1.2,2.8-14.5-11-4.9h0Z" style="fill: url(#linear-gradient-6); stroke: #291a43; stroke-miterlimit: 10; stroke-width: 5px;"/>
  <g style="opacity: .5;">
    <path d="M275.9,113.2s16.7,10.2,14.4,18-10.7,10-12.6,6.1-8-15.4-1.9-24.2Z" style="fill: #633697;"/>
    <path d="M279.5,152.2s8.2-2.5,10.3,3.1c2.1,5.5.8,13.1-2.1,14.7s-11.3,0-10.7-4.7,2.5-13.1,2.5-13.1Z" style="fill: #633697;"/>
    <path d="M283.9,193.7s5.9-2.5,6.7,1.8.5,10.9-3.4,9.8-7.2-.6-5.3-6.1l1.9-5.5Z" style="fill: #633697;"/>
    <path d="M310.4,283.1s13.2,4.4,10.2,11.5-5.5,10.4-9.1,8.5c-3.6-1.9-6-5.2-5.2-9.7s4.1-10.2,4.1-10.2Z" style="fill: #633697;"/>
    <path d="M306.2,312s6.2-1.4,7.5,2.2,1.8,6.6,0,9.6-6,6.6-7.5,2.2-2.9-11.5,0-13.9Z" style="fill: #633697;"/>
    <path d="M334.9,323.5s11.8,1.9,11.8,8.5,0,12-5.9,11.7c-5.9-.3-12-3.3-10.3-10.1s4.4-10.1,4.4-10.1Z" style="fill: #633697;"/>
    <path d="M373.4,353.3s4.7-5.2,6.9-1.1,4.7,8.2-1.1,9.6c-5.8,1.4-9.6,3.5-7.7-2.5l1.9-6Z" style="fill: #633697;"/>
    <path d="M392.6,329.2s-8,5.7-4.7,8.5c3.3,2.7,10.4,4.6,11,0s3-8.5-1.6-8.5h-4.7Z" style="fill: #633697;"/>
  </g>
  <g>
    <ellipse cx="198.4" cy="145.3" rx="8.8" ry="11.7" style="fill: #392258; stroke: #291a43; stroke-miterlimit: 10; stroke-width: 2px;"/>
    <path d="M142,133.7c0,6.4-3.9,11.7-8.8,11.7s-4.8-3.7-4.8-10.1,3.4-12.3,8.3-12.3,5.4,4.3,5.4,10.7Z" style="fill: #392258; stroke: #291a43; stroke-miterlimit: 10; stroke-width: 2px;"/>
  </g>
  <path d="M131.9,111.1s14-8.6,16.9,5.7c0,0-5.2-9-16.9-5.7Z" style="fill: #291a43;"/>
  <path d="M189.6,127.5s8.1-10.9,20-1.3c0,0-12.5-3.4-20,1.3Z" style="fill: #291a43;"/>
  <ellipse cx="188.8" cy="314.5" rx="22.8" ry="23.3" style="fill: #f0db4f; stroke: #291a43; stroke-miterlimit: 10; stroke-width: 5px;"/>
  <path d="M191.3,264.6s10.4-2.3,12,1c1.5,3.3-5.9,8.3-1.2,23.5,0,0-2.2,4.6-9.3,1.6-7.1-3-10-13.4-1.4-26.1Z" style="fill: #c3953f; stroke: #291a43; stroke-miterlimit: 10; stroke-width: 5px;"/>
  <ellipse cx="198" cy="303.6" rx="2.4" ry="3.2" transform="translate(-103 101.7) rotate(-23)" style="fill: #ffed94; opacity: .3; stroke: #dbc142; stroke-miterlimit: 10; stroke-width: .8px;"/>
  <text transform="translate(179.3 327.5)" style="fill: #323330; font-family: MyriadPro-Regular, &apos;Myriad Pro&apos;; font-size: 23.1px; stroke: #323330; stroke-miterlimit: 10; stroke-width: .8px;"><tspan x="0" y="0">JS</tspan></text>
  <g>
    <path d="M71.2,165s15.5-32.9,35.4-29.6c0,0,14-74.3,43.2-91.9s88.8-40.3,121.6-5.1c32.8,35.2,35.7,62,35.7,62,0,0,22.7-1.9,23.5,1.6,0,0-1.7-89.5-106-97.3C120.3-3.1,98.1,91.1,98.1,91.1c0,0-44.6,17.5-26.9,73.9Z" style="fill: #3178c6; stroke: #291a43; stroke-linecap: round; stroke-miterlimit: 10; stroke-width: 5px;"/>
    <ellipse cx="314.1" cy="148.3" rx="43" ry="50.9" style="fill: #3178c6; stroke: #291a43; stroke-linecap: round; stroke-miterlimit: 10; stroke-width: 5px;"/>
    <path d="M306,112.5s-44.8,53.1,8,76.9c0,0-34.9-21.6-8-76.9Z" style="fill: #251b3b;"/>
    <path d="M99.2,99.2s-21.6,19.7-15.9,44.6c0,0,5.1-4.8,6.3-5.2s-6.2-20.4,9.6-39.4Z" style="fill: #251b3b;"/>
  </g>
  <text transform="translate(309.2 166.5)" style="fill: #fff; font-family: MyriadPro-Regular, &apos;Myriad Pro&apos;; font-size: 35.1px; stroke: #fff; stroke-miterlimit: 10; stroke-width: 2px;"><tspan x="0" y="0" style="letter-spacing: 0em;">T</tspan><tspan x="17.2" y="0">S</tspan></text>
</svg>