<?xml version="1.0" encoding="UTF-8"?>
<svg id="Layer_2" data-name="Layer 2" xmlns="http://www.w3.org/2000/svg" width="454.3" height="439.9" xmlns:xlink="http://www.w3.org/1999/xlink" viewBox="0 0 454.3 439.9">
  <defs>
    <linearGradient id="linear-gradient" x1="91.7" y1="300" x2="148.7" y2="300" gradientUnits="userSpaceOnUse">
      <stop offset="0" stop-color="#7075ea"/>
      <stop offset="1" stop-color="#994ada"/>
    </linearGradient>
    <linearGradient id="linear-gradient-2" x1="84.3" y1="329.8" x2="451.2" y2="329.8" xlink:href="#linear-gradient"/>
    <linearGradient id="linear-gradient-3" x1="63.6" y1="141.3" x2="318.2" y2="141.3" xlink:href="#linear-gradient"/>
    <linearGradient id="linear-gradient-4" x1="83.1" y1="153.6" x2="85.6" y2="153.6" xlink:href="#linear-gradient"/>
    <linearGradient id="linear-gradient-5" x1="114.4" y1="155.4" x2="121" y2="155.4" xlink:href="#linear-gradient"/>
    <linearGradient id="linear-gradient-6" x1="151.1" y1="221.5" x2="340.1" y2="221.5" gradientUnits="userSpaceOnUse">
      <stop offset="0" stop-color="#8594d9"/>
      <stop offset="1" stop-color="#6382ef"/>
    </linearGradient>
  </defs>
  <path d="M65,407.3s-46.1,3.8-29.1,10.3c17,6.5,135.4,13,151.4,14.7,15.9,1.8,37.4,9.7,81.4,6.5,44-3.2,108.4-14.9,115-15.4s59.2-8.2,58.2-12c-1-3.8-4.5-8-36.4-8.8-31.9-.9-245.2,2.7-245.2,2.7l-95.2,2.1Z" style="fill: #8e8e8e; opacity: .5;"/>
  <path d="M141,273.2s-36-13.2-45.4,15.7c-9.6,29.5-.2,26.9,15.8,34.3,17,8,24.1,6.4,24.1,6.4l11.4-34.7,1.8-11.4-7.6-10.3Z" style="fill: url(#linear-gradient); stroke: #291a43; stroke-miterlimit: 10; stroke-width: 5px;"/>
  <polygon points="36.8 153.3 53.3 191.9 42.4 222.6 74.6 243.2 55.7 280.6 111.8 284.2 98.2 308.6 129.5 325.2 115 310.1 134.5 276.2 78.1 270.3 94.9 232.3 57.7 220.5 64.5 189.8 36.8 153.3" style="fill: #e2a9d3; opacity: .3; stroke: #ffcaf4; stroke-miterlimit: 10; stroke-width: 4px;"/>
  <polygon points="36.8 153.3 53.3 191.9 42.4 222.6 74.6 243.2 55.7 280.6 111.8 284.2 98.2 308.6 129.5 325.2 115 310.1 134.5 276.2 78.1 270.3 94.9 232.3 57.7 220.5 64.5 189.8 36.8 153.3" style="fill: #e2a9d3;"/>
  <path d="M85.6,369.5s8,48.4,36.6,48.6c28.6.2,44.5-13.8,70.7-8.1,26.1,5.7,12.8,7.2,37.2,8.1,0,0,10.6,23.7,39.2,17.5,28.6-6.2,65.1-16.8,70.9-20.6,0,0,39.2.7,55.4-9.7,16.2-10.4,47.2-34.7,51.8-68.8,4.7-34,8-70.3-8.4-78.9,0,0-10.9,2.2-16.8,36.3,0,0-14,34.7-48.3,43.6l-3.8.9s-7.7-29.7-23.9-52.4c-16.2-22.7-28.1-63.1-28.1-63.1,0,0-38.1,31-69.1,40.4-31,9.4-70.3,4.4-70.3,4.4,0,0-19.8,8-33.1,6.2h-3.1s5.4,19.3,0,36c0,0-18.7-8.4-20.2-.2-1.4,8.2,8.8,23.2,31.7,22.8v10.7c.1,0-19.5,0-28.5,9.1-1.6,1.6-14.2-4.8-18.5-2.3-2.3,1.4-7.2-5.6-17.9-2.1-8.2,2.6-3.4,21.7-3.4,21.7h0Z" style="fill: url(#linear-gradient-2); stroke: #291a43; stroke-miterlimit: 10; stroke-width: 5px;"/>
  <path d="M243.5,286.1s-45.8,52.2-50.5,64.6-1.8,13.5.7,17.8,9.6,3.7,11.2-1.3l1.7-5.6s.2,18.9,15.3,18.3c0,0,3.5-.3,4.1-3.2s.4-13.3,5.3-15.6c4.7-2.2,9.7-1.4,12.7,17.7,0,0-.6-24.5,13.3-15.1,13.9,9.4,20.4,31,20.4,34.5" style="fill: none; stroke: #291a43; stroke-linecap: round; stroke-miterlimit: 10; stroke-width: 5px;"/>
  <path d="M292.8,300.4s4.6,32.2-39,61.4c0,0,30.2-25.1,69.8-20.9" style="fill: none; stroke: #291a43; stroke-linecap: round; stroke-miterlimit: 10; stroke-width: 5px;"/>
  <path d="M230.4,416.6s-8.6-28.8-5-38" style="fill: none; stroke: #291a43; stroke-linecap: round; stroke-miterlimit: 10; stroke-width: 5px;"/>
  <path d="M165.9,271.7s-40.5,115.3,28.4,138.8" style="fill: none; stroke: #291a43; stroke-linecap: round; stroke-miterlimit: 10; stroke-width: 5px;"/>
  <path d="M107.6,352.1s4.4,8.5,4.4,11.4" style="fill: none; stroke: #291a43; stroke-linecap: round; stroke-miterlimit: 10; stroke-width: 5px;"/>
  <path d="M336.2,416.6s23.6-15.8,23.9-21.8" style="fill: none; stroke: #291a43; stroke-linecap: round; stroke-miterlimit: 10; stroke-width: 5px;"/>
  <path d="M371.3,373s.6-33.2-2.1-41.7" style="fill: none; stroke: #291a43; stroke-linecap: round; stroke-miterlimit: 10; stroke-width: 5px;"/>
  <g>
    <path d="M406.8,315.6s16.8-22.1,14.8-23.7-21.1-18.4-14.8,23.7Z" style="fill: #9d45d9; stroke: #291a43; stroke-linecap: round; stroke-miterlimit: 10; stroke-width: 5px;"/>
    <path d="M373.7,337.3s2.6-1.3,6.2-3.1c8.7-4.5,23.5-12.4,25-14.9l2-3.6s-15.9-10.5-18.4-3.8-16.2,26-16.9,26.3,2.1-.8,2.1-.8Z" style="fill: #9d45d9; stroke: #291a43; stroke-linecap: round; stroke-miterlimit: 10; stroke-width: 5px;"/>
    <path d="M357.4,300.4s24.4-6,25.7,1.1,5.6,16.2-9.4,35.8c0,0-12.3-33.6-16.3-36.9Z" style="fill: #9d45d9; stroke: #291a43; stroke-linecap: round; stroke-miterlimit: 10; stroke-width: 5px;"/>
    <path d="M337.2,267s23.8-3.5,24.8,4.1-4.7,29.2-4.7,29.2c0,0-17.2-30-20.2-33.3Z" style="fill: #9d45d9; stroke: #291a43; stroke-linecap: round; stroke-miterlimit: 10; stroke-width: 5px;"/>
    <path d="M318.5,224.3s26.7-.1,26.9,11.2-9.5,30.7-9.5,30.7c0,0-17.3-33.4-17.4-41.9Z" style="fill: #9d45d9; stroke: #291a43; stroke-linecap: round; stroke-miterlimit: 10; stroke-width: 5px;"/>
    <path d="M314.3,108.5s40.8-3.8,37.9,12.4-1.7,20.6-33.7,41.1c0,0,2.1-42.7-4.1-53.5Z" style="fill: #9d45d9; stroke: #291a43; stroke-linecap: round; stroke-miterlimit: 10; stroke-width: 5px;"/>
    <path d="M288.6,62.1s29-20.6,43.2-7.1c14.2,13.5-16.3,56.2-16.3,56.2,0,0-15.1-45.1-26.9-49.1Z" style="fill: #9d45d9; stroke: #291a43; stroke-linecap: round; stroke-miterlimit: 10; stroke-width: 5px;"/>
    <path d="M237.2,38.6s31.2-31.2,45.4-25,6,48.4,6,48.4c0,0-30.3-22.3-51.4-23.4Z" style="fill: #9d45d9; stroke: #291a43; stroke-linecap: round; stroke-miterlimit: 10; stroke-width: 5px;"/>
    <path d="M186.7,37.4S214.4-.5,227.3,4.1c12.8,4.6,10,34.5,10,34.5,0,0-35.4-7.4-50.5-1.2Z" style="fill: #9d45d9; stroke: #291a43; stroke-linecap: round; stroke-miterlimit: 10; stroke-width: 5px;"/>
  </g>
  <path d="M106.7,111.2s-53.7,5.7-41.2,62.3c0,0,4,35.8,61.6,37.6,0,0-23.8,18.1,66.1,12.9,0,0-24.4-.8-4.5,22.1,19.9,22.9,125.7-54.6,125.7-54.6,0,0,19.8-103-30.4-132.6s-135.9-40.8-164.3.4c0,0-11.2,16.3-13,52Z" style="fill: url(#linear-gradient-3); stroke: #291a43; stroke-linecap: round; stroke-miterlimit: 10; stroke-width: 5px;"/>
  <path d="M83.1,147s-.5,10.2,2.5,13.3" style="fill: url(#linear-gradient-4); stroke: #291a43; stroke-linecap: round; stroke-miterlimit: 10; stroke-width: 5px;"/>
  <path d="M121,150.5s-3.1,6.9-6.6,9.7" style="fill: url(#linear-gradient-5); stroke: #291a43; stroke-linecap: round; stroke-miterlimit: 10; stroke-width: 5px;"/>
  <path d="M117.7,211.8s54.8,7.1,98.4-30.7" style="fill: none; stroke: #291a43; stroke-miterlimit: 10; stroke-width: 5px;"/>
  <path d="M211.9,176.3v-1.1s-1,10.3,8.9,10.7c0,0-3.3-9-8.9-9.6Z" style="fill: #291a43;"/>
  <path d="M172.3,221.5s37.2-.8,41.5-2.4c0,0-10.2,7.2-23.6,8.4-13.4,1.2-42.9-1.3-46.3-3s28.4-3,28.4-3Z" style="fill: #291a43;"/>
  <path d="M327.5,195.2l1.4-10.6.4-2.2,10.8-7.2-6.1-21.1-15.5,7.8c.3,13.4-22.1,39.5-22.1,39.5h0c-6.2,5.2-12.6,10.6-15.7,13.6-7.4,7.1-70.6,41-81.2,36.8-10.6-4.3-22.7-20-22.7-20l-21.5,2.9-4,21.4,17.8,3.1-4.1,24.3,18.4,5.2,14.4-18.9,23.3-.2,7.7,15.2,25.2-6.8,1.4-17.8,22.6-10.1,14.3,12.5,20.7-16.7-3-16.8,12.9-11.8,13.7-1.3,3-15.6-11.8-5.3h0Z" style="fill: url(#linear-gradient-6); stroke: #291a43; stroke-miterlimit: 10; stroke-width: 5px;"/>
  <g style="opacity: .5;">
    <path d="M285,87.3s17.9,11.1,15.5,19.5-11.5,10.8-13.5,6.6-8.6-16.6-2-26.1Z" style="fill: #633697;"/>
    <path d="M288.8,129.3s8.9-2.7,11.1,3.3.9,14.1-2.2,15.9-12.2,0-11.5-5.1,2.7-14.1,2.7-14.1Z" style="fill: #633697;"/>
    <path d="M293.5,174.1s6.3-2.7,7.2,2,.5,11.7-3.6,10.6-7.8-.6-5.7-6.6l2.1-6Z" style="fill: #633697;"/>
    <path d="M322.1,270.6s14.2,4.7,10.9,12.4c-3.2,7.7-5.9,11.2-9.7,9.1-3.8-2.1-6.5-5.6-5.6-10.5s4.4-11,4.4-11Z" style="fill: #633697;"/>
    <path d="M317.5,301.9s6.7-1.5,8,2.4,1.9,7.1,0,10.3-6.4,7.1-8,2.4-3.1-12.4,0-15Z" style="fill: #633697;"/>
    <path d="M348.4,314.2s12.7,2.1,12.7,9.1,0,13-6.4,12.7c-6.4-.3-12.8-3.5-11.1-10.9s4.7-10.9,4.7-10.9Z" style="fill: #633697;"/>
    <path d="M389.7,346.4s5-5.6,7.4-1.2,5,8.8-1.2,10.3c-6.2,1.5-10.3,3.8-8.3-2.7l2.1-6.5Z" style="fill: #633697;"/>
    <path d="M410.4,320.4s-8.6,6.2-5,9.1,11.2,5,11.8,0,3.2-9.1-1.8-9.1h-5Z" style="fill: #633697;"/>
  </g>
  <g>
    <path d="M236.9,113.7c0,14.4-12.2,28.1-24.2,28.1s-21.8-11.6-21.8-26,12.3-30.2,24.3-30.2,21.7,13.7,21.7,28.1Z" style="fill: #d3a8c7; stroke: #291a43; stroke-miterlimit: 10; stroke-width: 3px;"/>
    <ellipse cx="201.7" cy="121.9" rx="9.5" ry="12.6" style="fill: #392258; stroke: #291a43; stroke-miterlimit: 10; stroke-width: 2px;"/>
    <path d="M146.9,100.3c0,11.4-11.6,23.1-18.2,23.1s-8.1-9.8-8.1-21.2,7.8-21.6,14.3-21.6,11.9,8.3,11.9,19.7Z" style="fill: #d3a8c7; stroke: #291a43; stroke-miterlimit: 10; stroke-width: 3px;"/>
    <path d="M141.1,109.3c0,7-4.2,12.6-9.5,12.6s-5.2-4-5.2-10.9,3.7-13.3,8.9-13.3,5.8,4.6,5.8,11.6Z" style="fill: #392258; stroke: #291a43; stroke-miterlimit: 10; stroke-width: 2px;"/>
  </g>
</svg>