<?xml version="1.0" encoding="UTF-8"?>
<svg id="Layer_1" data-name="Layer 1" xmlns="http://www.w3.org/2000/svg" width="453.7" height="438.8" xmlns:xlink="http://www.w3.org/1999/xlink" viewBox="0 0 453.7 438.8">
  <defs>
    <linearGradient id="linear-gradient" x1="2.5" y1="141.9" x2="145.8" y2="141.9" gradientTransform="translate(453.7 440) rotate(-180)" gradientUnits="userSpaceOnUse">
      <stop offset="0" stop-color="#555143"/>
      <stop offset="1" stop-color="#434233"/>
    </linearGradient>
    <linearGradient id="linear-gradient-2" x1="51.8" y1="141.9" x2="96.5" y2="141.9" gradientTransform="translate(453.7 440) rotate(-180)" gradientUnits="userSpaceOnUse">
      <stop offset="0" stop-color="#79599c"/>
      <stop offset="1" stop-color="#613e91"/>
    </linearGradient>
    <linearGradient id="linear-gradient-3" x1="26.7" y1="187.7" x2="63.3" y2="187.7" gradientTransform="translate(453.7 440) rotate(-180)" gradientUnits="userSpaceOnUse">
      <stop offset="0" stop-color="#79599c"/>
      <stop offset="1" stop-color="#613e91"/>
    </linearGradient>
    <linearGradient id="linear-gradient-4" x1="33" y1="179.4" x2="65.2" y2="179.4" gradientTransform="translate(453.7 440) rotate(-180)" gradientUnits="userSpaceOnUse">
      <stop offset="0" stop-color="#79599c"/>
      <stop offset="1" stop-color="#613e91"/>
    </linearGradient>
    <linearGradient id="linear-gradient-5" x1="46.6" y1="171.3" x2="65.4" y2="171.3" gradientTransform="translate(453.7 440) rotate(-180)" gradientUnits="userSpaceOnUse">
      <stop offset="0" stop-color="#79599c"/>
      <stop offset="1" stop-color="#613e91"/>
    </linearGradient>
    <linearGradient id="linear-gradient-6" x1="85.6" y1="110.8" x2="451.2" y2="110.8" gradientTransform="translate(453.7 440) rotate(-180)" gradientUnits="userSpaceOnUse">
      <stop offset="0" stop-color="#7075ea"/>
      <stop offset="1" stop-color="#994ada"/>
    </linearGradient>
    <linearGradient id="linear-gradient-7" x1="63.6" y1="299.7" x2="318.2" y2="299.7" gradientTransform="translate(453.7 440) rotate(-180)" gradientUnits="userSpaceOnUse">
      <stop offset="0" stop-color="#7075ea"/>
      <stop offset="1" stop-color="#994ada"/>
    </linearGradient>
    <linearGradient id="linear-gradient-8" x1="83.1" y1="287.3" x2="85.6" y2="287.3" gradientTransform="translate(453.7 440) rotate(-180)" gradientUnits="userSpaceOnUse">
      <stop offset="0" stop-color="#7075ea"/>
      <stop offset="1" stop-color="#994ada"/>
    </linearGradient>
    <linearGradient id="linear-gradient-9" x1="114.4" y1="285.5" x2="121" y2="285.5" gradientTransform="translate(453.7 440) rotate(-180)" gradientUnits="userSpaceOnUse">
      <stop offset="0" stop-color="#7075ea"/>
      <stop offset="1" stop-color="#994ada"/>
    </linearGradient>
    <linearGradient id="linear-gradient-10" x1="151.1" y1="219.3" x2="340.1" y2="219.3" gradientTransform="translate(453.7 440) rotate(-180)" gradientUnits="userSpaceOnUse">
      <stop offset="0" stop-color="#8594d9"/>
      <stop offset="1" stop-color="#6382ef"/>
    </linearGradient>
  </defs>
  <g>
    <circle cx="379.6" cy="298.1" r="71.6" style="fill: url(#linear-gradient); stroke: #292315; stroke-miterlimit: 10; stroke-width: 5px;"/>
    <circle cx="379.6" cy="298.1" r="22.3" style="fill: url(#linear-gradient-2); stroke: #292315; stroke-miterlimit: 10; stroke-width: 5px;"/>
    <circle cx="379.6" cy="298.1" r="6.5" style="fill: #262314;"/>
    <path d="M392.3,234.2c-8.4,5,13.4,14.9,19.1,18.8s14.6,27.8,15.7,12.4-34.7-31.2-34.7-31.2h0Z" style="fill: url(#linear-gradient-3); isolation: isolate; opacity: .6;"/>
    <path d="M396.5,247c-6.5-4.6-12,.9-4.4,4.3,7.5,3.4,10.3,17,20.5,22.9,10.2,5.9,7.8-4.7,7.8-4.7l-23.9-22.4h0Z" style="fill: url(#linear-gradient-4); isolation: isolate; opacity: .5;"/>
    <path d="M398.6,276c3.2,3.9,8.7,1.9,8.4-1.6s-13.9-14.9-13.9-14.9c-12.4-.3,2.2,12.7,5.5,16.6Z" style="fill: url(#linear-gradient-5); isolation: isolate; opacity: .4;"/>
  </g>
  <path d="M378.1,406.4s46.1,3.8,29.1,10.3c-17,6.5-135.4,13-151.4,14.8-15.9,1.8-37.4,9.7-81.4,6.5-44-3.2-108.4-14.9-115-15.4-6.6-.5-59.2-8.2-58.2-12.1,1-3.8,4.5-8,36.4-8.9,31.9-.9,245.2,2.7,245.2,2.7l95.2,2.1Z" style="fill: #8e8e8e; opacity: .5;"/>
  <path d="M368,369s-30.8-8.2-39.8-17.3-28.7-9.2-28.7-9.2v-10.7c23,.4,33.2-14.6,31.8-22.8s-20.2.2-20.2.2c-5.4-16.7,0-36.1,0-36.1h-3.1c-13.3,1.8-33.1-6.2-33.1-6.2,0,0-39.3,5-70.3-4.4-31-9.5-69.1-40.5-69.1-40.5,0,0-11.8,40.5-28.1,63.2s-23.9,52.5-23.9,52.5l-3.8-.9c-34.3-8.9-48.3-43.6-48.3-43.6-6-34.1-16.8-36.3-16.8-36.3-16.4,8.6-13.1,45-8.4,79.1s35.7,58.5,51.8,68.9,55.4,9.7,55.4,9.7c5.8,3.8,42.3,14.4,70.9,20.6,28.6,6.2,39.2-17.5,39.2-17.5,24.4-.9,11.1-2.3,37.2-8.1,26.1-5.8,42.1,8.3,70.7,8.1,28.6-.2,36.6-48.7,36.6-48.7h0Z" style="fill: url(#linear-gradient-6); stroke: #291a43; stroke-miterlimit: 10; stroke-width: 5px;"/>
  <path d="M176,397.6c0-3.5,6.5-25.1,20.4-34.6,13.9-9.5,13.3,15.1,13.3,15.1,3-19.2,8-19.9,12.7-17.8,4.9,2.3,4.7,12.7,5.3,15.7s4.1,3.2,4.1,3.2c15.1.6,15.3-18.3,15.3-18.3l1.7,5.6c1.6,5.1,8.5,5.9,11.2,1.3,2.5-4.3,3.3-11.2.7-17.9-4.7-12.4-50.5-64.7-50.5-64.7" style="fill: none; stroke: #291a43; stroke-linecap: round; stroke-miterlimit: 10; stroke-width: 5px;"/>
  <path d="M130.1,340.2c39.7-4.1,69.8,21,69.8,21-43.6-29.2-39-61.5-39-61.5" style="fill: none; stroke: #291a43; stroke-linecap: round; stroke-miterlimit: 10; stroke-width: 5px;"/>
  <path d="M228.3,378.2c3.6,9.2-5,38-5,38" style="fill: none; stroke: #291a43; stroke-linecap: round; stroke-miterlimit: 10; stroke-width: 5px;"/>
  <path d="M259.5,410.1c68.8-23.6,28.4-139.1,28.4-139.1" style="fill: none; stroke: #291a43; stroke-linecap: round; stroke-miterlimit: 10; stroke-width: 5px;"/>
  <path d="M330.4,369.8c0-2.9,4.4-11.4,4.4-11.4" style="fill: none; stroke: #291a43; stroke-linecap: round; stroke-miterlimit: 10; stroke-width: 5px;"/>
  <path d="M93.6,394.3c.3,6,23.9,21.8,23.9,21.8" style="fill: none; stroke: #291a43; stroke-linecap: round; stroke-miterlimit: 10; stroke-width: 5px;"/>
  <path d="M84.4,330.7c-2.7,8.6-2.1,41.8-2.1,41.8" style="fill: none; stroke: #291a43; stroke-linecap: round; stroke-miterlimit: 10; stroke-width: 5px;"/>
  <g>
    <path d="M32.1,291.2c-2.1,1.6,14.8,23.8,14.8,23.8,6.4-42.2-12.7-25.4-14.8-23.8Z" style="fill: #9d45d9; stroke: #291a43; stroke-linecap: round; stroke-miterlimit: 10; stroke-width: 5px;"/>
    <path d="M80,336.7s2.8,1.1,2.1.8-14.4-19.5-16.9-26.3c-2.5-6.8-18.4,3.8-18.4,3.8l2,3.6c1.4,2.5,16.3,10.5,25,14.9,3.7,1.9,6.2,3.1,6.2,3.1h0Z" style="fill: #9d45d9; stroke: #291a43; stroke-linecap: round; stroke-miterlimit: 10; stroke-width: 5px;"/>
    <path d="M96.3,299.7c-4,3.4-16.3,37-16.3,37-15-19.7-10.7-28.8-9.4-35.9s25.7-1.1,25.7-1.1h0Z" style="fill: #9d45d9; stroke: #291a43; stroke-linecap: round; stroke-miterlimit: 10; stroke-width: 5px;"/>
    <path d="M96.3,299.7s-5.7-21.6-4.7-29.3c1-7.7,24.8-4.1,24.8-4.1-3,3.4-20.2,33.4-20.2,33.4Z" style="fill: #9d45d9; stroke: #291a43; stroke-linecap: round; stroke-miterlimit: 10; stroke-width: 5px;"/>
    <path d="M135.2,223.5c-.1,8.6-17.4,42-17.4,42,0,0-9.6-19.4-9.5-30.8.1-11.4,26.9-11.2,26.9-11.2h0Z" style="fill: #9d45d9; stroke: #291a43; stroke-linecap: round; stroke-miterlimit: 10; stroke-width: 5px;"/>
    <path d="M135.2,161.1c-32-20.6-30.9-25-33.7-41.2-2.9-16.2,37.9-12.4,37.9-12.4-6.2,10.9-4.1,53.6-4.1,53.6Z" style="fill: #9d45d9; stroke: #291a43; stroke-linecap: round; stroke-miterlimit: 10; stroke-width: 5px;"/>
    <path d="M165.1,60.9c-11.7,4-26.9,49.2-26.9,49.2,0,0-30.5-42.8-16.3-56.3,14.2-13.5,43.2,7.1,43.2,7.1h0Z" style="fill: #9d45d9; stroke: #291a43; stroke-linecap: round; stroke-miterlimit: 10; stroke-width: 5px;"/>
    <path d="M216.5,37.5c-21,1.1-51.4,23.5-51.4,23.5,0,0-8.2-42.3,6-48.5s45.4,25,45.4,25h0Z" style="fill: #9d45d9; stroke: #291a43; stroke-linecap: round; stroke-miterlimit: 10; stroke-width: 5px;"/>
    <path d="M267,36.3c-15.1-6.3-50.5,1.2-50.5,1.2,0,0-2.9-29.9,10-34.6,12.8-4.7,40.5,33.4,40.5,33.4h0Z" style="fill: #9d45d9; stroke: #291a43; stroke-linecap: round; stroke-miterlimit: 10; stroke-width: 5px;"/>
  </g>
  <path d="M347,110.2c-1.8-35.8-13-52.1-13-52.1-28.4-41.2-114.2-29.9-164.3-.4-50.1,29.6-30.4,132.8-30.4,132.8,0,0,105.8,77.7,125.7,54.7,19.9-23-4.5-22.2-4.5-22.2,89.9,5.2,66.1-12.9,66.1-12.9,57.6-1.8,61.6-37.7,61.6-37.7,12.4-56.7-41.2-62.4-41.2-62.4h0Z" style="fill: url(#linear-gradient-7); stroke: #291a43; stroke-linecap: round; stroke-miterlimit: 10; stroke-width: 5px;"/>
  <path d="M368,159.3c3-3.1,2.5-13.3,2.5-13.3" style="fill: url(#linear-gradient-8); stroke: #291a43; stroke-linecap: round; stroke-miterlimit: 10; stroke-width: 5px;"/>
  <path d="M339.3,159.3c-3.5-2.9-6.6-9.7-6.6-9.7" style="fill: url(#linear-gradient-9); stroke: #291a43; stroke-linecap: round; stroke-miterlimit: 10; stroke-width: 5px;"/>
  <path d="M274.5,102.2c2.5-7.5-6.8-15.5-6.8-15.5" style="fill: #291a43;"/>
  <path d="M239,144c-18-3.1-18.1-17.4-17.2-23.9.1-.7,1.1-.8,1.3-.1,1.6,5.4,6.8,16.2,22.2,17.2,14.7.9,20.5-6.7,22.7-12.9.6-1.7,3.1-1.2,3.2.6.2,12.8-12.8,22.5-32.3,19.2Z" style="fill: #291a43;"/>
  <path d="M237.6,180.2c43.6,37.9,98.4,30.8,98.4,30.8" style="fill: none; stroke: #291a43; stroke-miterlimit: 10; stroke-width: 5px;"/>
  <path d="M241.7,175.4c-5.6.6-8.9,9.6-8.9,9.6,9.9-.4,8.9-10.7,8.9-10.7v1.1s0,0,0,0Z" style="fill: #291a43;"/>
  <path d="M326.8,107.8c-3.4,8.6-5.1,11-8.2,9.9-.4-.1-3-2-2.2-2.4,2.6-1.3,4.3-2.7,6.4-10.2,2-7.2,0-12.1-2.7-13.8-.8-.5-.3-1.7.6-1.5,6.4,1.2,9.9,8.7,6.2,18.1Z" style="fill: #291a43;"/>
  <path d="M309.7,89.7c-3.5-4.3-.9-11.5-.9-11.5" style="fill: #291a43;"/>
  <path d="M281.4,220.7s31.8,1.3,28.4,3-32.9,4.2-46.3,3-23.6-8.4-23.6-8.4c4.3,1.7,41.5,2.4,41.5,2.4h0Z" style="fill: #291a43;"/>
  <path d="M126.2,194.4h0l-11.8,5.3,3,15.7,13.7,1.3,12.9,11.8-3,16.8,20.7,16.8,14.3-12.5,22.6,10.1,1.4,17.9,25.2,6.8,7.7-15.3,23.3.2,14.4,18.9,18.4-5.2-4.1-24.3,17.8-3.2-4-21.4-21.5-2.9s-12,15.7-22.7,20c-10.6,4.3-73.8-29.8-81.2-36.9-3.2-3-9.5-8.4-15.7-13.6h0s-22.4-26.1-22.1-39.5l-15.5-7.9-6.1,21.1,10.8,7.3.4,2.2,1.4,10.6h0Z" style="fill: url(#linear-gradient-10); stroke: #291a43; stroke-miterlimit: 10; stroke-width: 5px;"/>
  <g style="opacity: .5;">
    <path d="M166.7,112.3c-2,4.2-11.1,1.8-13.5-6.6-2.4-8.4,15.5-19.5,15.5-19.5,6.6,9.5,0,21.9-2,26.1Z" style="fill: #633697;"/>
    <path d="M167.6,142.4c.7,5.1-8.4,6.9-11.5,5.1s-4.4-10-2.2-15.9c2.2-6,11.1-3.3,11.1-3.3,0,0,2,9.1,2.7,14.2Z" style="fill: #633697;"/>
    <path d="M160.2,173.2l2.1,6c2.1,6-1.6,5.5-5.7,6.6s-4.5-6-3.6-10.6,7.2-2,7.2-2h0Z" style="fill: #633697;"/>
    <path d="M136,281c.9,4.9-1.8,8.4-5.6,10.5s-6.5-1.5-9.7-9.2,10.9-12.4,10.9-12.4c0,0,3.5,6.2,4.4,11.1Z" style="fill: #633697;"/>
    <path d="M136.2,316.3c-1.6,4.7-6.1.9-8-2.4s-1.3-6.5,0-10.3,8-2.4,8-2.4c3.1,2.7,1.6,10.3,0,15.1Z" style="fill: #633697;"/>
    <path d="M105.3,313.6s3,3.5,4.7,10.9c1.8,7.4-4.7,10.6-11.1,10.9-6.4.3-6.4-5.6-6.4-12.7s12.7-9.2,12.7-9.2h0Z" style="fill: #633697;"/>
    <path d="M64,345.8l2.1,6.5c2.1,6.5-2.1,4.1-8.3,2.7s-3.5-5.9-1.2-10.3c2.4-4.4,7.4,1.2,7.4,1.2h0Z" style="fill: #633697;"/>
    <path d="M38.3,319.8c-5,0-2.4,4.1-1.8,9.2s8.3,3,11.8,0-5-9.2-5-9.2h-5Z" style="fill: #633697;"/>
  </g>
</svg>