<?xml version="1.0" encoding="UTF-8"?>
<svg id="Layer_1" data-name="Layer 1" xmlns="http://www.w3.org/2000/svg" width="432.2069" height="448.7326" xmlns:xlink="http://www.w3.org/1999/xlink" viewBox="0 0 432.2069 448.7326">
  <defs>
    <linearGradient id="linear-gradient" x1="118.1634" y1="24.8658" x2="145.7127" y2="72.5827" gradientUnits="userSpaceOnUse">
      <stop offset=".7976" stop-color="#9d46d9"/>
      <stop offset="1" stop-color="#6382ef"/>
    </linearGradient>
    <linearGradient id="linear-gradient-2" x1="10.4984" y1="235.9082" x2="349.8685" y2="235.9082" gradientUnits="userSpaceOnUse">
      <stop offset="0" stop-color="#8594d9"/>
      <stop offset="1" stop-color="#6382ef"/>
    </linearGradient>
    <linearGradient id="linear-gradient-3" x1="83.268" y1="170.8179" x2="357.954" y2="170.8179" gradientUnits="userSpaceOnUse">
      <stop offset="0" stop-color="#9d46d9"/>
      <stop offset="1" stop-color="#6382ef"/>
    </linearGradient>
  </defs>
  <polygon points="195.173 38.0899 195.3946 33.438 180.1096 13.9442 161.0588 7.9631 143.1156 13.9442 137.5776 48.5014 135.3624 54.0395 95.7101 39.6406 83.748 44.7356 84.6341 70.2105 91.5012 103.8817 110.3305 74.8624 137.1345 54.0395 165.4892 44.7356 195.173 38.0899" style="fill: url(#linear-gradient);"/>
  <polygon points="90.5413 108.7551 78.4315 100.485 60.7098 96.6453 29.503 133.8424 46.7676 159.3282 42.437 182.5619 10.4984 196.1821 16.8277 244.8261 43.8742 247.575 55.5769 268.9428 45.0557 298.9678 49.7814 309.6008 79.9083 337.0694 102.0604 321.7107 132.3865 333.1125 137.7991 362.7659 171.4703 375.1711 189.3789 373.7326 201.7354 352.7048 217.2513 373.3989 240.8802 369.2638 259.1926 360.1076 264.5796 330.3425 287.2519 317.5756 317.6741 326.4364 349.8685 288.6302 336.4633 266.356 335.9866 231.9208 288.138 257.9126 252.99 280.9508 222.8632 299.2632 195.0992 304.2843 151.6811 296.6049 117.7422 275.0989 89.9506 237.5327 80.2036 200.6125 82.8619 141.2449 90.5413 108.7551" style="fill: url(#linear-gradient-2);"/>
  <path d="M156.813,50.3105l-41.6459,24.3673-21.266,38.9877-10.633,58.0385.5169,53.3127,28.5762,45.4118,51.9836,31.0868,44.3042,2.2152,31.899-15.0634,25.6964-17.2786,15.9495-11.076,33.2281-16.8356,34.5573-26.1395,7.9748-51.3929s-16.3926-27.4686-19.0508-27.9116-31.456-13.7343-31.456-13.7343l-4.8735-38.9877-26.5825-32.7851-63.798-14.6204-55.3802,12.4052Z" style="fill: url(#linear-gradient-3);"/>
  <path d="M136.2392,55.6085s0-38.5446,11.2237-45.6333,29.6838-5.7596,55.3802,28.3547" style="fill: none; stroke: #123a41; stroke-miterlimit: 10; stroke-width: 10px;"/>
  <path d="M177.5529,257.3773s36.7725,23.9243,88.6084,8.4178,81.0767-37.6586,88.1654-66.0132c1.2635-5.0538,9.3355-33.389-8.0353-53.5437-9.37-10.8717-23.5753-15.4783-31.386-17.1028-2.1188-.4407-3.7179-2.1695-3.9692-4.319-1.7827-15.2519-5.2727-35.2713-19.9646-56.618-1.311-1.9048-2.2417-3.2572-3.5443-4.8735-29.2881-36.3418-99.8706-24.104-103.2288-23.4812-15.9105,2.9508-52.2357,9.6877-76.6463,40.7599-16.5956,21.1246-19.7007,43.3348-23.9243,73.5449-3.0225,21.6194-5.913,42.2945,1.7722,67.7854,2.9522,9.7921,10.3868,33.3699,32.3421,53.165,2.9936,2.6991,44.2639,38.6654,97.4692,25.6964,26.4802-6.4546,48.8169-28.6858,56.5617-36.7725" style="fill: none; stroke: #16393f; stroke-miterlimit: 10; stroke-width: 10px;"/>
  <path d="M340.5185,225.2567l-6.1666,32.3745c-.586,3.0766.1835,6.2565,2.1114,8.7248l12.5843,16.1117c2.2633,2.8977,2.2044,6.9801-.1415,9.8113l-25.5795,30.8718c-2.7818,3.3574-7.4086,4.5424-11.4619,2.9357l-21.6798-8.5938c-2.6938-1.0678-5.742-.7277-8.1343.9075l-17.4711,11.9423c-1.2827.8768-2.0807,2.3039-2.156,3.8558l-1.1269,23.2148c-.1378,2.8392-2.0603,5.2789-4.7885,6.077l-33.4366,9.7808c-3.1764.9292-6.5744-.452-8.2018-3.3338l-9.7145-17.2028c-.7478-1.3242-2.6493-1.3406-3.4198-.0294l-12.3565,21.0278c-1.6424,2.7949-4.875,4.2427-8.0539,3.6069l-40.5736-8.1147c-1.6833-.3367-2.9334-1.7579-3.0525-3.4704l-1.9166-27.5516c-.1515-2.1781-1.4429-4.1139-3.3958-5.0903l-23.1957-11.5979c-.8884-.4442-1.9373-.4283-2.8118.0426l-25.3028,13.6246c-2.3839,1.2837-5.3283.8453-7.235-1.0771l-29.2127-29.4541c-1.9678-1.9841-2.4107-5.0199-1.0918-7.4835l11.8183-22.0756c1.02-1.9052,1.1019-4.1749.222-6.1487l-9.4127-21.115c-.0747-.1676-.234-.2818-.4166-.2989l-28.9199-2.7028c-1.3842-.1294-2.4793-1.2273-2.6052-2.6118l-3.9128-43.0404c-.1775-1.9528.9709-3.7838,2.8062-4.4741l27.9467-10.5121c.7092-.2668,1.2294-.882,1.3745-1.6257l4.4403-22.7565c.0331-.1694-.0047-.3403-.1098-.4772-1.7269-2.2516-16.7079-21.8677-17.2645-25.4858-.5258-3.4175,26.5578-33.5084,32.5203-40.0846.6856-.7562,1.7786-.9856,2.7106-.5694l24.5613,10.9701s-14.325-55.2326-2.0675-64.0934c12.2575-8.8608,46.5194,17.2786,46.5194,17.2786" style="fill: none; stroke: #16393f; stroke-miterlimit: 10; stroke-width: 10px;"/>
  <ellipse cx="188.504" cy="130.2259" rx="14.1652" ry="21.9834" style="fill: #143840;"/>
  <ellipse cx="311.4846" cy="179.4929" rx="6.9892" ry="6.9088" style="fill: #143840;"/>
  <ellipse cx="272.2305" cy="132.0438" rx="13.1463" ry="18.2733" style="fill: #143840;"/>
  <path d="M167.9998,98.7128s16.171-14.1773,29.0192-7.5317" style="fill: none; stroke: #143840; stroke-linecap: round; stroke-linejoin: round; stroke-width: 10px;"/>
  <path d="M262.3192,98.2436s17.5002-3.9874,23.9243,5.7595" style="fill: none; stroke: #143840; stroke-linecap: round; stroke-linejoin: round; stroke-width: 10px;"/>
  <path d="M278.7709,221.2993c-43.2962,21.3708-90.501-4.9666-93.3833-13.9909-1.134-3.5507-1.1587-11.4535-2.9775-11.6151-1.7207-.1529-3.7673,6.737-5.1428,12.1431" style="fill: none; stroke: #16393f; stroke-linecap: round; stroke-miterlimit: 10; stroke-width: 10px;"/>
  <g>
    <path d="M307.2942,273.7076l-46.5564,20.2104-35.7292,88.0599s-6.4963,18.406,14.436,23.4586,115.4885,31.7594,115.4885,31.7594c0,0,24.1804,3.609,33.5637-18.406,9.3835-22.015,37.1729-92.7517,37.1729-92.7517,0,0,7.9399-15.8796-12.2705-22.3759-20.2104-6.4963-106.105-29.9548-106.105-29.9548Z" style="fill: #ffe0b3; stroke: #16393f; stroke-miterlimit: 10; stroke-width: 10px;"/>
    <ellipse cx="306.9332" cy="324.7752" rx="18.7669" ry="17.8646" style="fill: #e77943;"/>
    <ellipse cx="364.3165" cy="335.2413" rx="18.0451" ry="17.8646" style="fill: #1ba1bb;"/>
    <ellipse cx="342.1211" cy="393.3465" rx="19.3082" ry="16.7819" style="fill: #205044;"/>
    <circle cx="280.046" cy="376.3841" r="17.5037" style="fill: #ffac40;"/>
  </g>
</svg>