<?xml version="1.0" encoding="UTF-8"?>
<svg id="Layer_1" data-name="Layer 1" xmlns="http://www.w3.org/2000/svg" width="400.3929" height="448.7326" xmlns:xlink="http://www.w3.org/1999/xlink" viewBox="0 0 400.3929 448.7326">
  <defs>
    <linearGradient id="linear-gradient" x1="114.4646" y1="23.3408" x2="142.014" y2="71.0576" gradientUnits="userSpaceOnUse">
      <stop offset=".7976" stop-color="#9d46d9"/>
      <stop offset="1" stop-color="#6382ef"/>
    </linearGradient>
    <linearGradient id="linear-gradient-2" x1="6.7996" y1="234.3832" x2="346.1698" y2="234.3832" gradientUnits="userSpaceOnUse">
      <stop offset="0" stop-color="#8594d9"/>
      <stop offset="1" stop-color="#6382ef"/>
    </linearGradient>
    <linearGradient id="linear-gradient-3" x1="79.5693" y1="169.2929" x2="354.2553" y2="169.2929" gradientUnits="userSpaceOnUse">
      <stop offset="0" stop-color="#9d46d9"/>
      <stop offset="1" stop-color="#6382ef"/>
    </linearGradient>
    <linearGradient id="linear-gradient-4" x1="160.3429" y1="443.287" x2="323.9215" y2="443.287" gradientTransform="translate(55.6435 -104.8428)" xlink:href="#linear-gradient-3"/>
    <linearGradient id="linear-gradient-5" x1="5691.196" y1="-727.6214" x2="5821.3581" y2="-727.6214" gradientTransform="translate(5695.3935 -1793.0662) rotate(165.6428)" xlink:href="#linear-gradient-3"/>
  </defs>
  <polygon points="191.4743 36.5649 191.6958 31.913 176.4108 12.4192 157.36 6.4381 139.4168 12.4192 133.8788 46.9764 131.6636 52.5145 92.0114 38.1156 80.0492 43.2106 80.9353 68.6855 87.8025 102.3567 106.6317 73.3374 133.4358 52.5145 161.7905 43.2106 191.4743 36.5649" style="fill: url(#linear-gradient);"/>
  <polygon points="86.8425 107.2301 74.7327 98.96 57.011 95.1203 25.8043 132.3174 43.0688 157.8032 38.7383 181.0369 6.7996 194.6571 13.1289 243.3011 40.1754 246.05 51.8781 267.4178 41.3569 297.4428 46.0827 308.0758 76.2095 335.5444 98.3616 320.1856 128.6877 331.5875 134.1003 361.2409 167.7715 373.646 185.6801 372.2076 198.0366 351.1798 213.5525 371.8739 237.1814 367.7388 255.4938 358.5826 260.8808 328.8175 283.5532 316.0506 313.9754 324.9114 346.1698 287.1052 332.7645 264.831 332.2878 230.3958 284.4393 256.3876 249.2913 279.4258 219.1644 297.7382 191.4004 302.7593 147.9823 295.0799 114.0435 273.5739 86.2518 236.0077 76.5049 199.0875 79.1631 139.7199 86.8425 107.2301" style="fill: url(#linear-gradient-2);"/>
  <path d="M153.1142,48.7855l-41.6459,24.3673-21.266,38.9877-10.633,58.0385.5169,53.3127,28.5762,45.4118,51.9836,31.0868,44.3042,2.2152,31.899-15.0634,25.6964-17.2786,15.9495-11.076,33.2281-16.8356,34.5573-26.1395,7.9748-51.3929s-16.3926-27.4686-19.0508-27.9116-31.456-13.7343-31.456-13.7343l-4.8735-38.9877-26.5825-32.7851-63.798-14.6204-55.3802,12.4052Z" style="fill: url(#linear-gradient-3);"/>
  <path d="M132.5405,54.0835s0-38.5446,11.2237-45.6333,29.6838-5.7596,55.3802,28.3547" style="fill: none; stroke: #123a41; stroke-miterlimit: 10; stroke-width: 10px;"/>
  <path d="M173.8541,255.8523s36.7725,23.9243,88.6084,8.4178,81.0767-37.6586,88.1654-66.0132c1.2635-5.0538,9.3355-33.389-8.0353-53.5437-9.37-10.8717-23.5753-15.4783-31.386-17.1028-2.1188-.4407-3.7179-2.1695-3.9692-4.319-1.7827-15.2519-5.2727-35.2713-19.9646-56.618-1.311-1.9048-2.2417-3.2572-3.5443-4.8735-29.2881-36.3418-99.8706-24.104-103.2288-23.4812-15.9105,2.9508-52.2357,9.6877-76.6463,40.7599-16.5956,21.1246-19.7007,43.3348-23.9243,73.5449-3.0225,21.6194-5.913,42.2945,1.7722,67.7854,2.9522,9.7921,10.3868,33.3699,32.3421,53.165,2.9936,2.6991,44.2639,38.6654,97.4692,25.6964,26.4802-6.4546,48.8169-28.6858,56.5617-36.7725" style="fill: none; stroke: #16393f; stroke-miterlimit: 10; stroke-width: 10px;"/>
  <path d="M336.8197,223.7317l-6.1666,32.3745c-.586,3.0766.1835,6.2565,2.1114,8.7248l12.5843,16.1117c2.2633,2.8977,2.2044,6.9801-.1415,9.8113l-25.5795,30.8718c-2.7818,3.3574-7.4086,4.5424-11.4619,2.9357l-21.6798-8.5938c-2.6938-1.0678-5.742-.7277-8.1343.9075l-17.4711,11.9423c-1.2827.8768-2.0807,2.3039-2.156,3.8558l-1.1269,23.2148c-.1378,2.8392-2.0603,5.2789-4.7885,6.077l-33.4366,9.7808c-3.1764.9292-6.5744-.452-8.2018-3.3338l-9.7145-17.2028c-.7478-1.3242-2.6493-1.3406-3.4198-.0294l-12.3565,21.0278c-1.6424,2.7949-4.875,4.2427-8.0539,3.6069l-40.5736-8.1147c-1.6833-.3367-2.9334-1.7579-3.0525-3.4704l-1.9166-27.5516c-.1515-2.1781-1.4429-4.1139-3.3958-5.0903l-23.1957-11.5979c-.8884-.4442-1.9373-.4283-2.8118.0426l-25.3028,13.6246c-2.3839,1.2837-5.3283.8453-7.235-1.0771l-29.2127-29.4541c-1.9678-1.9841-2.4107-5.0199-1.0918-7.4835l11.8183-22.0756c1.02-1.9052,1.1019-4.1749.222-6.1487l-9.4127-21.115c-.0747-.1676-.234-.2818-.4166-.2989l-28.9199-2.7028c-1.3842-.1294-2.4793-1.2273-2.6052-2.6118l-3.9128-43.0404c-.1775-1.9528.9709-3.7838,2.8062-4.4741l27.9467-10.5121c.7092-.2668,1.2294-.882,1.3745-1.6257l4.4403-22.7565c.0331-.1694-.0047-.3403-.1098-.4772-1.7269-2.2516-16.7079-21.8677-17.2645-25.4858-.5258-3.4175,26.5578-33.5084,32.5203-40.0846.6856-.7562,1.7786-.9856,2.7106-.5694l24.5613,10.9701s-14.325-55.2326-2.0675-64.0934c12.2575-8.8608,46.5194,17.2786,46.5194,17.2786" style="fill: none; stroke: #16393f; stroke-miterlimit: 10; stroke-width: 10px;"/>
  <ellipse cx="184.8053" cy="128.7009" rx="14.1652" ry="21.9834" style="fill: #143840;"/>
  <ellipse cx="306.9231" cy="170.8775" rx="6.9892" ry="6.9088" style="fill: #143840;"/>
  <ellipse cx="271.7798" cy="126.7293" rx="13.1463" ry="18.2733" style="fill: #143840;"/>
  <path d="M164.301,97.1878s16.171-14.1773,29.0192-7.5317" style="fill: none; stroke: #143840; stroke-linecap: round; stroke-linejoin: round; stroke-width: 10px;"/>
  <path d="M261.3272,90.7638s17.5002-3.9874,23.9243,5.7595" style="fill: none; stroke: #143840; stroke-linecap: round; stroke-linejoin: round; stroke-width: 10px;"/>
  <path d="M275.0721,219.7743c-71.6582,3.4751-90.501-4.9666-93.3833-13.9909-1.134-3.5507-1.1587-11.4535-2.9775-11.6151-1.7207-.1529-3.7673,6.737-5.1428,12.1431" style="fill: none; stroke: #16393f; stroke-linecap: round; stroke-miterlimit: 10; stroke-width: 10px;"/>
  <g>
    <rect x="215.9864" y="291.5811" width="163.5786" height="93.7262" rx="19.2672" ry="19.2672" transform="translate(-74.6227 84.4082) rotate(-14.3572)" style="fill: url(#linear-gradient-4); stroke: #16393f; stroke-miterlimit: 10; stroke-width: 10px;"/>
    <path d="M366.3152,338.4825s-15.8452,3.1904-13.2476,20.2642l-91.8279,23.5042s-9.6885-15.6914-21.1255-11.8987l-8.9381-34.9201s10.4598-4.8405,8.402-14.2648l98.1494-25.1223s1.3917,16.5171,19.7116,10.53l8.876,31.9075Z" style="fill: url(#linear-gradient-5); stroke: #16393f; stroke-miterlimit: 10; stroke-width: 5px;"/>
    <ellipse cx="261.3471" cy="346.7796" rx="7.0737" ry="7.5158" transform="translate(-77.8273 75.6355) rotate(-14.3572)" style="fill: #16393f;"/>
    <ellipse cx="342.2256" cy="326.3822" rx="7.0737" ry="7.5158" transform="translate(-70.2435 95.0536) rotate(-14.3572)" style="fill: #16393f;"/>
    <path d="M302.7837,317.1473c-7.1532.5123-15.8402,1.306-20.9071,7.1245-3.1208,3.5837-3.6506,8.0347-2.2615,12.5128,1.2631,4.072,4.2775,7.2643,8.585,8.0279,3.9245.6957,7.7884-.11,11.6048-1.0424.8871-.2167,1.7751-.4324,2.6713-.6092.2953-.0583.5914-.1087.8875-.1629,1.4788-.2705-1.3066.0148.1705-.0059.5716-.008,1.5708.1603,2.12.0086l-.7533-.0938c.2686.0516.534.1162.7962.194,1.1399.2045-1.0801-.6284.1634.0702.7245.407.2517.5401-.1721-.2317.1141.2078.5535.527.7355.6943.7647.7027-.5535-1.0262-.3177-.4079.067.1757.2294.4614.3432.6065-.7667-.978-.4195-1.1488-.2192-.3953.0446.1676.06.3688.1154.5346-.4774-1.4262-.1211-1.1973-.1286-.4814-.0157,1.5132.3334-1.1372.0493-.1675-.0553.1887-.0908.3824-.1468.5715-.1995.6743-.6186.8134.1705-.2812-.2955.4099-.5267.9559-.7853,1.4009-.604,1.0396.9551-1.021.1104-.1244-.2432.2581-.4711.5265-.7241.776-.1733.1709-.3565.3299-.5332.4971-.4805.4023-.3702.3288.3308-.2206-.2065.1545-.4169.3034-.6312.4468-.6014.4028-1.2327.7611-1.8824,1.0797-.4459.2187-1.4208.3918.095-.0142-.3443.0922-.6949.2632-1.0341.3767-.7599.2544-1.5351.4619-2.3188.6282-.3018.0641-.6062.1129-.9085.1736-.6483.1006-.4855.0817.4883-.0565-.2425.0284-.4854.0527-.7287.0728-.7179.0593-1.4389.083-2.1591.0664-.293-.0068-.5854-.0207-.8778-.0411-.1731-.0109-.346-.0252-.5186-.0428-.6455-.0727-.4556-.0455.5696.0816-.5938-.2191-1.2923-.2497-1.9074-.4397-.2926-.0904-.5852-.2355-.8806-.3096,1.6519.4149.644.2663.0869-.0508-2.7073-1.5408-6.6315-.7289-8.145,2.1357-1.4932,2.8262-.7553,6.4997,2.1357,8.145,11.2839,6.4219,31.2845-.0353,32.042-14.4232.1736-3.2975-1.2973-6.8209-3.7464-9.0271-3.2224-2.9028-7.4294-4.0506-11.7056-3.5689-2.0416.23-4.0287.628-6.0225,1.1145-.7217.1761-1.4417.3596-2.1672.52-.4283.0947-.858.1838-1.2896.2623-.2874.0527-.5756.1009-.8646.1444l.7222-.1002c-.5165.3356-1.8853.0809-2.485.0822-1.2919.0028,1.006.282.2568.0307-.1479-.0496-.7525-.2927-.8678-.2531l.7509.2895c-.5426-.3465-.4314-.2486.3334.2938-.9062-.7825.6846,1.1704.1052.1523-.2997-.5266.0514-.42.1761.5302-.053-.4039-.2858-.8511-.3887-1.2524-.067-.2614-.342-.9315-.2599-1.1774.0833.7796.1093.9405.078.4827-.0177-.2224-.0201-.4452-.007-.6682l-.0888.6837c.2131-.6857.1618-.6055-.154.2407.1006-.1868.2115-.3673.3327-.5415-.612.7587-.712.9012-.3001.4277.1699-.152.3395-.3331.4995-.4926.4726-.4033.3552-.3253-.3521.234.2052-.1511.4147-.2959.6286-.4344.3755-.2442,1.6282-1.1943,2.1078-1.142l-.6657.2781c.2557-.1022.5134-.199.7732-.2902.48-.1686.9666-.3159,1.4573-.45.9727-.2658,1.9601-.4717,2.9548-.6361.3341-.0552,1.7317-.4654.256-.0461.4267-.1212.9452-.1055,1.3829-.1475,1.0715-.1028,2.1453-.1794,3.2189-.2563,3.0993-.2219,6.1042-2.5791,5.9531-5.9531-.1359-3.0348-2.6267-6.1913-5.9531-5.9531h0Z" style="fill: #16393f;"/>
    <path d="M297.865,320.3325c-.4838-.6631-.8931-1.3745-1.2152-2.1297l.6001,1.4221c-.2268-.5415-.4069-1.0992-.5382-1.6714-.1842-.7747-.5394-1.4495-1.0656-2.0245-.4198-.6481-.9765-1.1592-1.6703-1.5333-.6833-.435-1.4211-.6705-2.2134-.7065-.7913-.1772-1.5826-.1418-2.3739.1063l-1.4221.6001c-.8946.5292-1.6065,1.2411-2.1357,2.1357l-.6001,1.4221c-.2835,1.0551-.2835,2.1101,0,3.1652.268,1.1672.7617,2.2801,1.2571,3.3633.3002.6564.6712,1.2771,1.0965,1.8599.3741.6937.8852,1.2505,1.5333,1.6703.575.5262,1.2498.8814,2.0245,1.0656.7913.2481,1.5826.2835,2.3739.1063.7923-.0359,1.53-.2714,2.2134-.7065l1.2048-.9309c.7378-.7428,1.2481-1.6184,1.531-2.6269l.2127-1.5826c-.0033-1.0746-.2743-2.0761-.8128-3.0047h0Z" style="fill: #16393f;"/>
    <path d="M297.0522,359.6085c.7051,1.3125,1.4103,2.625,2.1154,3.9376.3741.6937.8852,1.2505,1.5333,1.6703.575.5262,1.2498.8814,2.0245,1.0656.7913.2481,1.5826.2835,2.3739.1063.7923-.0359,1.53-.2714,2.2134-.7065l1.2048-.9309c.7378-.7428,1.2481-1.6184,1.531-2.6269l.2127-1.5826c-.0033-1.0746-.2743-2.0761-.8128-3.0047-.7051-1.3125-1.4103-2.625-2.1154-3.9376-.3741-.6937-.8852-1.2505-1.5333-1.6703-.575-.5262-1.2498-.8814-2.0245-1.0656-.7913-.2481-1.5826-.2835-2.3739-.1063-.7923.0359-1.53.2714-2.2134.7065l-1.2048.9309c-.7378.7428-1.2481,1.6184-1.531,2.6269l-.2127,1.5826c.0033,1.0746.2743,2.0761.8128,3.0047h0Z" style="fill: #16393f;"/>
  </g>
</svg>