<?xml version="1.0" encoding="UTF-8"?>
<svg id="Layer_1" data-name="Layer 1" xmlns="http://www.w3.org/2000/svg" width="441.45739" height="448.73257" xmlns:xlink="http://www.w3.org/1999/xlink" viewBox="0 0 441.45739 448.73257">
  <defs>
    <linearGradient id="linear-gradient" x1="119.42049" y1="25.81701" x2="146.96981" y2="73.53384" gradientUnits="userSpaceOnUse">
      <stop offset=".79756" stop-color="#9d46d9"/>
      <stop offset="1" stop-color="#6382ef"/>
    </linearGradient>
    <linearGradient id="linear-gradient-2" x1="11.75546" y1="236.85938" x2="351.12562" y2="236.85938" gradientUnits="userSpaceOnUse">
      <stop offset="0" stop-color="#8594d9"/>
      <stop offset="1" stop-color="#6382ef"/>
    </linearGradient>
    <linearGradient id="linear-gradient-3" x1="84.52511" y1="171.76913" x2="359.21114" y2="171.76913" gradientUnits="userSpaceOnUse">
      <stop offset="0" stop-color="#9d46d9"/>
      <stop offset="1" stop-color="#6382ef"/>
    </linearGradient>
    <linearGradient id="linear-gradient-4" x1="258.58853" y1="307.45819" x2="306.52568" y2="307.45819" gradientTransform="translate(-34.43554 35.6048) rotate(-6.7985)" xlink:href="#linear-gradient-3"/>
  </defs>
  <polygon points="196.43013 39.04113 196.65165 34.38919 181.3667 14.89535 162.3159 8.91428 144.3727 14.89535 138.83467 49.45262 136.61946 54.99065 96.9672 40.59178 85.00507 45.68676 85.89116 71.16168 92.75831 104.83287 111.58759 75.81362 138.39163 54.99065 166.74632 45.68676 196.43013 39.04113" style="fill: url(#linear-gradient);"/>
  <polygon points="91.79838 109.70633 79.68857 101.43621 61.96689 97.59652 30.76012 134.79358 48.02465 160.27938 43.69412 183.51314 11.75546 197.13328 18.08474 245.77726 45.13129 248.52615 56.834 269.89397 46.31274 299.91902 51.03852 310.55203 81.16537 338.02063 103.31747 322.66184 133.64358 334.06365 139.05619 363.71706 172.72738 376.12224 190.63596 374.68379 202.99249 353.656 218.50839 374.35007 242.13729 370.21501 260.4497 361.05881 265.83665 331.29367 288.50902 318.52678 318.93124 327.38762 351.12562 289.58137 337.7204 267.30721 337.24364 232.872 289.3951 258.8638 254.24711 281.90198 224.12025 300.21438 196.35629 305.23552 152.93817 297.55613 118.99931 276.05012 91.20766 238.48387 81.46074 201.5637 84.11899 142.19608 91.79838 109.70633" style="fill: url(#linear-gradient-2);"/>
  <path d="M141.49887,55.41112l-25.07474,20.2179-21.26602,38.98769-10.63301,58.0385.51688,53.31272,28.57621,45.4118,51.98359,31.08678,44.3042,2.21521,31.89902-15.06343,25.69643-17.27864,15.94951-11.07605,33.22815-16.8356,34.55727-26.13948,7.97476-51.39287s-16.39255-27.4686-19.05081-27.91164-31.45598-13.7343-31.45598-13.7343l-4.87346-38.98769-26.58252-32.78511-63.79805-14.62039-71.95146,16.55458Z" style="fill: url(#linear-gradient-3);"/>
  <path d="M284.9827,218.13463c-12.3252-.91326-56.81828-6.20746-104.44139-36.25308-3.65658-2.30695-8.57586-1.33762-10.75261,2.12971-3.26669,5.20346-4.97468,15.17293,4.33225,33.54616,16.52223,32.6173,54.17194,38.70941,54.17194,38.70941,0,0,31.49865,9.35243,55.43813-22.48066.20932-.27834.49578-.50265.82685-.64885,2.0174-.8909,9.36506-4.58192,7.25745-10.27792-.99714-2.69484-3.78615-4.49903-6.83263-4.72476Z" style="fill: #16393f;"/>
  <path d="M137.49632,56.55974s0-38.54462,11.22373-45.6333,29.68382-5.75958,55.38025,28.35468" style="fill: none; stroke: #123a41; stroke-miterlimit: 10; stroke-width: 10px;"/>
  <path d="M178.80998,258.32844s36.77248,23.92429,88.60839,8.41782,81.07668-37.65857,88.16536-66.01324c1.26346-5.05383,9.33549-33.38898-8.03531-53.5437-9.37-10.87165-23.57533-15.47829-31.38599-17.10279-2.11882-.44068-3.71791-2.16946-3.96915-4.31899-1.78271-15.2519-5.2727-35.2713-19.96456-56.61802-1.31097-1.90479-2.24175-3.2572-3.54433-4.87347-29.28813-36.3418-99.87061-24.104-103.22878-23.4812-15.91053,2.95081-52.23572,9.68768-76.64626,40.75989-16.59563,21.12457-19.70073,43.33478-23.92427,73.54492-3.02251,21.61938-5.91301,42.29449,1.77217,67.78543,2.95218,9.79205,10.38684,33.36987,32.34206,53.16504,2.99361,2.6991,44.26389,38.66537,97.46924,25.69644,26.48023-6.45462,48.81692-28.68578,56.56169-36.77248" style="fill: none; stroke: #16393f; stroke-miterlimit: 10; stroke-width: 10px;"/>
  <path d="M341.77559,226.20791l-6.16657,32.37451c-.58602,3.07663.1835,6.25652,2.11138,8.72479l12.58429,16.11171c2.26327,2.89767,2.20441,6.98008-.14146,9.81129l-25.57949,30.8718c-2.78181,3.35735-7.40865,4.54242-11.46189,2.93573l-21.67983-8.59381c-2.69379-1.06781-5.74204-.72775-8.13428.90746l-17.4711,11.94227c-1.28275.87682-2.08071,2.30388-2.15605,3.85583l-1.12693,23.21475c-.13783,2.8392-2.06026,5.27893-4.78848,6.07698l-33.43663,9.78078c-3.17644.92916-6.5744-.45203-8.20176-3.33383l-9.7145-17.20276c-.7478-1.32423-2.64933-1.34059-3.4198-.02943l-12.35653,21.02779c-1.64239,2.79495-4.87503,4.24268-8.05387,3.60692l-40.57358-8.11472c-1.68334-.33667-2.93341-1.75786-3.05255-3.4704l-1.91663-27.5516c-.15152-2.17809-1.4429-4.11392-3.39576-5.09035l-23.19573-11.59787c-.88837-.44419-1.93733-.4283-2.81184.04259l-25.30281,13.62459c-2.38392,1.28365-5.32835.84531-7.23498-1.07708l-29.21268-29.4541c-1.96782-1.98408-2.41074-5.01989-1.09184-7.4835l11.81827-22.07563c1.01995-1.90519,1.10191-4.17488.22202-6.14867l-9.41272-21.11502c-.0747-.16757-.23396-.28183-.41663-.2989l-28.91991-2.70279c-1.38417-.12936-2.47933-1.22729-2.60519-2.61179l-3.91277-43.04045c-.17753-1.95282.97085-3.78378,2.80618-4.47414l27.94667-10.51205c.70917-.26675,1.22938-.88204,1.37449-1.6257l4.4403-22.75654c.03305-.1694-.00474-.34026-.10977-.47721-1.72691-2.25159-16.70789-21.86765-17.26453-25.4858-.52577-3.41749,26.55782-33.50842,32.52031-40.0846.68559-.75615,1.77862-.98561,2.71057-.56936l24.56133,10.97015s-14.32502-55.23257-2.06753-64.09341c12.25749-8.86084,46.51941,17.27864,46.51941,17.27864" style="fill: none; stroke: #16393f; stroke-miterlimit: 10; stroke-width: 10px;"/>
  <path d="M191.49199,222.53177c2.61877-4.97015,21.76544.29269,30.56989,3.32281,12.78638,4.40054,33.91808,14.47113,32.45283,20.04764-1.5653,5.95724-29.24441,8.02557-48.5131-4.87344-7.95162-5.32303-16.56475-14.59659-14.50962-18.49701Z" style="fill: #cc6b45;"/>
  <ellipse cx="189.76114" cy="131.17714" rx="14.16523" ry="21.98336" style="fill: #143840;"/>
  <ellipse cx="312.74169" cy="180.44412" rx="6.98916" ry="6.90884" style="fill: #143840;"/>
  <ellipse cx="273.48756" cy="132.99498" rx="13.14632" ry="18.27332" style="fill: #143840;"/>
  <path d="M169.25689,99.66403s16.17103-14.17731,29.01925-7.53168" style="fill: none; stroke: #143840; stroke-linecap: round; stroke-linejoin: round; stroke-width: 10px;"/>
  <path d="M263.57632,99.19483s17.50016-3.98743,23.92427,5.75952" style="fill: none; stroke: #143840; stroke-linecap: round; stroke-linejoin: round; stroke-width: 10px;"/>
  <path d="M436.36875,255.2732c.82363-6.36603-4.19966-11.96689-10.61482-11.74217-26.63498.93304-95.44917,4.76485-103.57588,19.56709-7.15479,13.03195-19.5563,52.29747-26.18816,74.1154-2.1632,7.11665,3.66359,14.11877,11.05598,13.29492l97.95398-10.91656c3.89721-.43433,7.21189-3.03135,8.5689-6.7104,5.60184-15.18738,19.93783-55.48581,22.8-77.60827Z" style="fill: #7b9092; stroke: #16393f; stroke-miterlimit: 10; stroke-width: 10px;"/>
  <ellipse cx="367.76255" cy="310.92953" rx="13.2415" ry="11.18795" transform="translate(-66.8712 103.51697) rotate(-14.70223)" style="fill: #16393f;"/>
  <path d="M298.10952,286.37507l-33.64989,15.61792c-1.02173.47421-1.71277,1.45759-1.8127,2.57956l-1.93629,21.73783c-.1912,2.1465,1.77978,3.8477,3.87529,3.34485l34.20396-8.2077c1.29865-.31163,2.25998-1.40781,2.39943-2.73603l3.15641-30.06267c.262-2.49542-2.35482-4.2818-4.58338-3.12886l-1.65283.85509Z" style="fill: url(#linear-gradient-4); stroke: #16393f; stroke-linecap: round; stroke-miterlimit: 10; stroke-width: 10px;"/>
  <path d="M296.08869,336.61848l4.06219-12.27299c.71562-2.16207-1.21154-4.27372-3.42985-3.7582l-44.92428,10.4401c-.35322.08209-.37353.57737-.02822.68811l33.09281,10.61204c4.67491,1.49913,9.6847-1.04834,11.22734-5.70907Z" style="fill: #657375; stroke: #16393f; stroke-miterlimit: 10; stroke-width: 10px;"/>
</svg>