<?xml version="1.0" encoding="UTF-8"?>
<svg id="Layer_1" data-name="Layer 1" xmlns="http://www.w3.org/2000/svg" width="400.3929" height="445.1656" xmlns:xlink="http://www.w3.org/1999/xlink" viewBox="0 0 400.3929 445.1656">
  <defs>
    <linearGradient id="linear-gradient" x1="112.8717" y1="23.3408" x2="140.4211" y2="71.0576" gradientUnits="userSpaceOnUse">
      <stop offset=".7976" stop-color="#9d46d9"/>
      <stop offset="1" stop-color="#6382ef"/>
    </linearGradient>
    <linearGradient id="linear-gradient-2" x1="5.2067" y1="234.3832" x2="344.5769" y2="234.3832" gradientUnits="userSpaceOnUse">
      <stop offset="0" stop-color="#8594d9"/>
      <stop offset="1" stop-color="#6382ef"/>
    </linearGradient>
    <linearGradient id="linear-gradient-3" x1="77.9764" y1="169.2929" x2="352.6624" y2="169.2929" gradientUnits="userSpaceOnUse">
      <stop offset="0" stop-color="#9d46d9"/>
      <stop offset="1" stop-color="#6382ef"/>
    </linearGradient>
    <linearGradient id="linear-gradient-4" x1="245.748" y1="331.6386" x2="298.3528" y2="331.6386" xlink:href="#linear-gradient-3"/>
    <linearGradient id="linear-gradient-5" x1="281.961" y1="354.3195" x2="327.1777" y2="354.3195" xlink:href="#linear-gradient-3"/>
  </defs>
  <polygon points="189.8814 36.5649 190.1029 31.913 174.8179 12.4192 155.7671 6.4381 137.8239 12.4192 132.2859 46.9764 130.0707 52.5145 90.4185 38.1156 78.4563 43.2106 79.3424 68.6855 86.2096 102.3567 105.0388 73.3374 131.8429 52.5145 160.1976 43.2106 189.8814 36.5649" style="fill: url(#linear-gradient);"/>
  <polygon points="85.2496 107.2301 73.1398 98.96 55.4181 95.1203 24.2114 132.3174 41.4759 157.8032 37.1454 181.0369 5.2067 194.6571 11.536 243.3011 38.5825 246.05 50.2852 267.4178 39.764 297.4428 44.4898 308.0758 74.6166 335.5444 96.7687 320.1856 127.0948 331.5875 132.5074 361.2409 166.1786 373.646 184.0872 372.2076 196.4437 351.1798 211.9596 371.8739 235.5885 367.7388 253.9009 358.5826 259.2879 328.8175 281.9603 316.0506 312.3825 324.9114 344.5769 287.1052 331.1716 264.831 330.6949 230.3958 282.8464 256.3876 247.6984 279.4258 217.5715 297.7382 189.8075 302.7593 146.3894 295.0799 112.4506 273.5739 84.6589 236.0077 74.912 199.0875 77.5702 139.7199 85.2496 107.2301" style="fill: url(#linear-gradient-2);"/>
  <path d="M151.5213,48.7855l-41.6459,24.3673-21.266,38.9877-10.633,58.0385.5169,53.3127,28.5762,45.4118,51.9836,31.0868,44.3042,2.2152,31.899-15.0634,25.6964-17.2786,15.9495-11.076,33.2281-16.8356,34.5573-26.1395,7.9748-51.3929s-16.3926-27.4686-19.0508-27.9116-31.456-13.7343-31.456-13.7343l-4.8735-38.9877-26.5825-32.7851-63.798-14.6204-55.3802,12.4052Z" style="fill: url(#linear-gradient-3);"/>
  <path d="M282.1877,202.131c-9.7846.9689-53.1478,3.5097-103.17-20.4365-2.1832-1.0451-4.8172-.4208-6.2135,1.5563-3.2947,4.6652-6.3433,15.2246,7.1087,35.4782,19.7154,29.6838,54.9372,29.9053,54.9372,29.9053,0,0,30.3484,4.4304,47.627-31.2344,0,0,11.0067-6.8318,3.863-13.8207-1.0992-1.0753-2.6222-1.5997-4.1525-1.4482Z" style="fill: #16393f;"/>
  <path d="M130.9476,54.0835s0-38.5446,11.2237-45.6333,29.6838-5.7596,55.3802,28.3547" style="fill: none; stroke: #123a41; stroke-miterlimit: 10; stroke-width: 10px;"/>
  <path d="M172.2612,255.8523s36.7725,23.9243,88.6084,8.4178,81.0767-37.6586,88.1654-66.0132c1.2635-5.0538,9.3355-33.389-8.0353-53.5437-9.37-10.8717-23.5753-15.4783-31.386-17.1028-2.1188-.4407-3.7179-2.1695-3.9692-4.319-1.7827-15.2519-5.2727-35.2713-19.9646-56.618-1.311-1.9048-2.2417-3.2572-3.5443-4.8735-29.2881-36.3418-99.8706-24.104-103.2288-23.4812-15.9105,2.9508-52.2357,9.6877-76.6463,40.7599-16.5956,21.1246-19.7007,43.3348-23.9243,73.5449-3.0225,21.6194-5.913,42.2945,1.7722,67.7854,2.9522,9.7921,10.3868,33.3699,32.3421,53.165,2.9936,2.6991,44.2639,38.6654,97.4692,25.6964,26.4802-6.4546,48.8169-28.6858,56.5617-36.7725" style="fill: none; stroke: #16393f; stroke-miterlimit: 10; stroke-width: 10px;"/>
  <path d="M335.2268,223.7317l-6.1666,32.3745c-.586,3.0766.1835,6.2565,2.1114,8.7248l12.5843,16.1117c2.2633,2.8977,2.2044,6.9801-.1415,9.8113l-25.5795,30.8718c-2.7818,3.3574-7.4086,4.5424-11.4619,2.9357l-21.6798-8.5938c-2.6938-1.0678-5.742-.7277-8.1343.9075l-17.4711,11.9423c-1.2827.8768-2.0807,2.3039-2.156,3.8558l-1.1269,23.2148c-.1378,2.8392-2.0603,5.2789-4.7885,6.077l-33.4366,9.7808c-3.1764.9292-6.5744-.452-8.2018-3.3338l-9.7145-17.2028c-.7478-1.3242-2.6493-1.3406-3.4198-.0294l-12.3565,21.0278c-1.6424,2.7949-4.875,4.2427-8.0539,3.6069l-40.5736-8.1147c-1.6833-.3367-2.9334-1.7579-3.0525-3.4704l-1.9166-27.5516c-.1515-2.1781-1.4429-4.1139-3.3958-5.0903l-23.1957-11.5979c-.8884-.4442-1.9373-.4283-2.8118.0426l-25.3028,13.6246c-2.3839,1.2837-5.3283.8453-7.235-1.0771l-29.2127-29.4541c-1.9678-1.9841-2.4107-5.0199-1.0918-7.4835l11.8183-22.0756c1.02-1.9052,1.1019-4.1749.222-6.1487l-9.4127-21.115c-.0747-.1676-.234-.2818-.4166-.2989l-28.9199-2.7028c-1.3842-.1294-2.4793-1.2273-2.6052-2.6118l-3.9128-43.0404c-.1775-1.9528.9709-3.7838,2.8062-4.4741l27.9467-10.5121c.7092-.2668,1.2294-.882,1.3745-1.6257l4.4403-22.7565c.0331-.1694-.0047-.3403-.1098-.4772-1.7269-2.2516-16.7079-21.8677-17.2645-25.4858-.5258-3.4175,26.5578-33.5084,32.5203-40.0846.6856-.7562,1.7786-.9856,2.7106-.5694l24.5613,10.9701s-14.325-55.2326-2.0675-64.0934c12.2575-8.8608,46.5194,17.2786,46.5194,17.2786" style="fill: none; stroke: #16393f; stroke-miterlimit: 10; stroke-width: 10px;"/>
  <path d="M188.5523,210.3112c2.6188-4.9702,21.7654.2927,30.5699,3.3228,12.7864,4.4005,33.9181,14.4711,32.4528,20.0476-1.5653,5.9572-29.2444,8.0256-48.5131-4.8734-7.9516-5.323-16.5648-14.5966-14.5096-18.497Z" style="fill: #cc6b45;"/>
  <ellipse cx="183.2124" cy="128.7009" rx="14.1652" ry="21.9834" style="fill: #143840;"/>
  <ellipse cx="305.3302" cy="170.8775" rx="6.9892" ry="6.9088" style="fill: #143840;"/>
  <ellipse cx="270.1869" cy="126.7293" rx="13.1463" ry="18.2733" style="fill: #143840;"/>
  <path d="M162.7081,97.1878s16.171-14.1773,29.0192-7.5317" style="fill: none; stroke: #143840; stroke-linecap: round; stroke-linejoin: round; stroke-width: 10px;"/>
  <path d="M259.7343,90.7638s17.5002-3.9874,23.9243,5.7595" style="fill: none; stroke: #143840; stroke-linecap: round; stroke-linejoin: round; stroke-width: 10px;"/>
  <path d="M340.5126,228.6268c-.7736,1.6331-.5826,3.5541.4869,5.0107,3.6405,4.958,12.3397,15.5176,18.5142,12.612,5.7544-2.708,14.9201-18.3298,19.6044-26.8709,1.6535-3.015,5.7956-3.4133,8.0353-.8041,6.9327,8.0764,16.3046,26.3363-4.4346,54.2603-.1167.1571-.2403.3058-.3737.449-1.7919,1.9246-14.8702,15.3275-33.8191,17.8685-1.4142.1896-2.6682,1.0081-3.4351,2.2113l-26.0184,40.822-63.0131,97.8114s-11.632,17.2153-33.5074,1.6621c-.252-.1792-.4859-.3794-.7007-.6019-2.235-2.3154-14.0597-15.8042-2.9415-31.6262,11.8857-16.9142,73.0996-105.3767,76.5027-110.2947.1012-.1463.1901-.2917.2748-.4482l11.0415-20.3843c.6654-1.2285.7741-2.6788.3022-3.9938-2.3727-6.6109-9.2894-27.5532-5.3577-36.9895,4.7025-11.2859,21.1611-37.6198,47.9652-34.7983h0c3.2687.467,5.1501,3.9666,3.7366,6.9506l-12.8624,27.1539Z" style="fill: #758d8c; stroke: #00423f; stroke-miterlimit: 10; stroke-width: 10px;"/>
  <path d="M294.2451,338.4274s-23.9633,35.6528-40.913,17.729-.1948-41.4975-.1948-41.4975c0,0,18.3135-17.3393,31.5615-11.2998s17.729,21.2358,9.5464,35.0683Z" style="fill: url(#linear-gradient-4); stroke: #00423f; stroke-miterlimit: 10; stroke-width: 10px;"/>
  <path d="M318.6487,331.583s18.144,16.6395,1.5046,38.8254c-16.6395,22.1859-39.5188-1.7333-38.1322-8.3197,1.3867-6.5865,17.5615-42.9853,36.6276-30.5057Z" style="fill: url(#linear-gradient-5); stroke: #00423f; stroke-miterlimit: 10; stroke-width: 10px;"/>
</svg>