<svg version="1.1" xmlns="http://www.w3.org/2000/svg" style="display: block;" viewBox="0 0 2048 2048" width="1000" height="1000" preserveAspectRatio="none">
<defs>
	<linearGradient id="Gradient1" gradientUnits="userSpaceOnUse" x1="1841.79" y1="1403.61" x2="202.656" y2="650.135">
		<stop class="stop0" offset="0" stop-opacity="1" stop-color="rgb(157,70,217)"/>
		<stop class="stop1" offset="1" stop-opacity="1" stop-color="rgb(99,130,239)"/>
	</linearGradient>
</defs>
<path transform="translate(0,0)" fill="url(#Gradient1)" d="M 878.776 130.275 C 886.153 119.492 895.342 114.855 907.839 112.518 C 927.941 108.759 947.757 109.3 968.104 109.276 L 1031.93 109.243 C 1059.97 109.241 1092.22 107.369 1119.75 110.102 C 1129.62 111.082 1145.61 113.208 1153.77 119.269 C 1183.87 141.644 1198.94 280.267 1229.29 302.563 C 1243.29 312.842 1265.21 317.021 1281.68 322.37 C 1294.81 326.636 1308.01 331.165 1320.83 336.289 L 1322.01 337.078 C 1331.2 341.549 1340.44 345.946 1349.52 350.644 C 1370.36 361.429 1392.69 375.255 1416.82 366.789 C 1433.68 360.872 1449.58 350.344 1465.1 341.511 C 1481.43 332.22 1497.94 323.32 1514.03 313.608 C 1528.32 304.975 1545.58 292.366 1561.92 288.297 C 1569.61 286.382 1576.7 287.441 1583.92 290.614 C 1603.17 299.087 1726.82 423.065 1746.81 445.695 C 1754.62 454.543 1765.43 466.02 1769.19 477.246 C 1772.46 486.992 1768.65 497.391 1764.02 506.008 C 1756.45 520.109 1698.73 621.565 1694.65 625.079 C 1687.21 639.794 1683.43 652.69 1688.84 669.061 C 1690.68 674.628 1693.54 679.933 1696.15 685.17 C 1705.45 702.313 1713.13 720.013 1722.09 737.228 C 1724.3 744.121 1727.26 750.727 1730.1 757.378 L 1731.33 761.448 C 1732.61 764.785 1734.01 768.077 1734.71 771.597 L 1735.35 773.001 C 1739.21 784.299 1742.63 796.351 1747.55 807.215 L 1750.29 812.998 C 1763.87 833.789 1786.22 837.354 1808.83 842.315 L 1810 842.779 C 1814.37 844.225 1818.71 845.644 1823.19 846.763 C 1834.23 848.605 1845.16 852.225 1855.99 855.067 C 1875.54 860.201 1896.67 864.109 1915.06 872.559 C 1922.09 875.79 1929.37 879.961 1934.01 886.295 C 1940.1 894.626 1943.13 904.257 1944.89 914.304 C 1951.99 954.856 1949.64 1009.38 1949.43 1051.5 C 1949.29 1079.54 1951.26 1109.36 1946.29 1137.04 C 1943.75 1151.24 1940.38 1163.78 1927.77 1172.32 C 1906.22 1186.91 1836.33 1201.89 1808.02 1209.26 C 1795.95 1212.4 1782.87 1214.65 1771.82 1220.63 C 1765.29 1224.16 1759.24 1229.94 1755.06 1236.08 C 1744.69 1251.31 1733.64 1290.6 1725.81 1309.74 C 1719.9 1323.89 1713.62 1337.89 1706.96 1351.71 C 1700.54 1364.71 1690.88 1379.18 1687.55 1393.24 C 1685.94 1400.04 1685.8 1409.54 1687.84 1416.35 C 1693.15 1434.12 1707.45 1451.83 1717.1 1467.59 C 1724.49 1479.66 1731.38 1492.12 1739.08 1503.97 C 1739.55 1504.69 1740.06 1505.39 1740.57 1506.09 C 1748.81 1519.35 1757.97 1532.38 1765.53 1546.02 C 1770.03 1556.45 1772.13 1564.02 1767.83 1575.13 C 1765.84 1580.27 1763.58 1584.28 1760.12 1588.56 C 1740.44 1612.97 1599.72 1755.76 1579.61 1764.01 C 1569.21 1768.28 1557.25 1766.87 1547.26 1762.3 C 1537.84 1757.99 1528.8 1751.4 1519.98 1745.9 C 1505.76 1737.03 1491.3 1728.56 1477.06 1719.72 C 1457.99 1707.88 1436.67 1691.71 1415.08 1685.29 C 1406.29 1682.68 1397.33 1682.54 1388.63 1685.55 C 1371.27 1691.55 1355.61 1702.52 1338.5 1709.47 C 1322.78 1715.85 1306.96 1722.55 1290.87 1727.93 C 1272.65 1734.03 1250.32 1738.6 1233.74 1748.32 C 1224.91 1753.5 1219.33 1760.3 1214.98 1769.43 C 1207.3 1785.53 1202.8 1803.84 1197.41 1820.85 C 1192.37 1836.76 1186.57 1852.4 1181.56 1868.31 C 1176 1885.99 1171.09 1908.45 1159.82 1923.49 C 1154.19 1931.01 1145.46 1935.72 1136.77 1938.84 C 1126.98 1942.36 1116.23 1944.99 1105.87 1946.13 C 1083.01 1948.67 1058.56 1947.21 1035.56 1947.24 C 1003.95 1947.27 970.938 1948.65 939.485 1945.4 C 926.282 1944.03 910.307 1941.44 898.233 1935.78 C 890.836 1932.31 885.853 1927.67 880.543 1921.67 C 877.62 1913.87 874.107 1906.3 871.233 1898.43 L 871.123 1897.73 L 863.606 1874.94 C 854.246 1843.02 844.165 1810.71 833.079 1779.35 C 828.722 1767.02 822.421 1756.69 811.705 1748.87 C 798.855 1739.5 780.379 1736.61 765.479 1731.78 C 755.608 1728.58 745.868 1724.78 736.173 1721.08 C 716.982 1713.75 698.202 1704.82 679.714 1695.88 C 671.237 1691.26 662.178 1687.5 653.214 1683.94 C 647.1 1682.64 640.802 1682.21 634.663 1683.6 C 615.842 1687.85 596.844 1701.94 580.366 1711.59 C 561.321 1722.65 542.368 1733.88 523.509 1745.25 C 512.951 1751.68 501.857 1759.86 490.138 1763.96 C 480.511 1767.32 469.167 1767.67 459.995 1762.76 C 436.2 1750.01 415.449 1724.94 396.357 1705.91 C 378.736 1688.34 361.063 1670.95 343.668 1653.15 C 328.1 1637.22 311.564 1621.93 297.409 1604.71 C 290.567 1596.38 283.146 1586.85 280.19 1576.31 C 277.862 1568.01 278.318 1559 281.013 1550.85 C 285.508 1537.24 295.011 1524.44 302.381 1512.24 C 317.363 1487.44 332.958 1462.87 347.504 1437.83 C 355.901 1423.38 361.552 1409.22 357.015 1392.37 C 356.92 1392.01 356.817 1391.66 356.718 1391.31 C 345.649 1367.41 331.287 1345.24 322.804 1320.14 L 321.221 1317.06 L 319.633 1312.37 L 316.512 1304.99 L 311.805 1291.75 L 310.406 1288.01 C 307.503 1277.43 303.239 1267.16 299.854 1256.72 C 297.454 1250.47 295.223 1243.93 291.63 1238.25 C 281.855 1222.8 267.117 1217.6 250.211 1213.7 C 231.702 1207.43 212.491 1203.47 194.002 1197.15 L 189.852 1196.02 C 186.996 1195.75 184.185 1194.87 181.403 1194.17 L 171.972 1191.96 L 170.379 1191.18 L 163.006 1189.09 C 158.261 1187.98 153.516 1186.43 148.839 1185.06 C 133.969 1180.69 115.476 1173.82 107.968 1159.11 C 99.9939 1143.49 101.372 1123.32 100.04 1106.24 C 98.7541 1089.74 96.4473 1073.23 95.5966 1056.71 C 93.67 1015.85 95.1137 974.907 99.9128 934.287 C 101.227 923.368 101.623 912.337 105.165 901.841 C 107.958 893.566 111.633 886.117 118.641 880.622 C 138.369 865.154 210.964 850.689 238.752 843.606 C 252.069 840.211 266.363 837.244 278.636 830.918 C 286.055 827.093 290.713 821.814 294.668 814.488 C 306.29 792.957 311.069 767.518 320.584 744.912 C 325.688 732.786 330.824 720.476 336.749 708.726 C 343.592 695.155 352.932 680.6 357.237 666.046 C 359.488 658.432 359.319 647.865 357.008 640.326 C 352.158 624.504 332.99 595.814 324.166 579.869 L 294.445 528.88 C 292.775 523.872 289.045 518.465 286.516 513.75 L 283.415 506.517 L 279.943 497.892 L 278.838 494.823 C 278.59 488.479 278.247 482.362 280.334 476.266 C 282.748 469.217 286.596 463.09 291.123 457.234 C 312.597 429.46 436.648 302.665 461.713 291.239 C 467.216 288.73 473.641 286.758 479.728 287.786 C 500.097 291.229 520.272 306.879 537.964 317.046 C 555.237 326.829 572.425 336.762 589.523 346.846 C 601.244 353.87 613.633 362.674 626.581 367.093 C 635.58 370.163 645.732 371.006 655.002 368.699 C 671.231 364.661 687.67 354.466 702.783 347.139 C 714.823 341.361 727.057 335.997 739.464 331.055 C 761.082 322.235 785.343 318.021 806.213 307.745 C 813.155 304.327 819.363 299.604 823.416 292.934 C 830.039 282.036 832.973 268.673 837.054 256.653 C 850.316 217.587 861.241 177.843 874.663 138.825 L 878.776 130.275 z M 539.728 996.563 C 560.661 965.982 587.323 959.773 618.733 944.417 C 631.88 937.99 643.14 928.989 647.767 914.507 C 649.43 909.304 651.028 902.757 650.028 897.345 C 647.074 881.34 616.74 853.261 606.89 833.264 C 599.918 819.11 593.401 800.846 598.967 785.279 C 613.754 743.925 688.633 755.925 722.059 738.984 C 730.794 734.557 737.731 727.487 740.685 718.016 C 743.811 707.993 742.279 696.527 741.791 686.193 C 740.77 664.585 737.951 635.965 745.35 615.385 C 748.13 607.65 753.201 601.677 760.806 598.385 C 785.87 587.537 828.582 611.125 852.734 620.051 C 858.892 622.327 868.575 626.88 875.127 625.273 C 881.119 623.802 896.129 610.294 902.08 606.242 C 908.331 601.987 914.619 598.18 921.513 595.047 C 1025.05 547.98 1124.97 573.345 1199.96 656.886 C 1219 678.101 1234.14 708.375 1258.31 724.096 C 1277.1 736.32 1302.91 741.43 1324.26 747.696 C 1357.54 757.461 1391.48 766.128 1423.92 778.458 C 1471.55 796.564 1504.13 825.357 1524.97 871.96 C 1545.94 918.821 1550.74 992.719 1531.86 1040.82 C 1527.26 1052.55 1519.8 1062.28 1507.98 1067.24 C 1487.43 1075.87 1444.31 1076.51 1421.57 1076.71 C 1312.73 1077.7 1200.08 1068.26 1098.18 1027.55 L 1099.01 1028.63 C 1110.92 1043.74 1126.17 1053.81 1142.38 1063.69 C 1196.82 1096.87 1257.43 1113.92 1320.34 1121.8 C 1362.4 1126.27 1408.18 1130.95 1450.45 1127.32 C 1440.52 1141.44 1431.61 1171.68 1417.57 1182.04 C 1401.71 1201.18 1367.52 1230.74 1343.62 1236.56 C 1343.49 1236.59 1343.34 1236.58 1343.2 1236.58 C 1304.38 1258.48 1211.42 1257.34 1166.71 1255.89 L 1160.18 1255.33 C 1126.64 1253.86 1095.08 1250.94 1062.08 1244.72 C 1055.85 1243.55 1048.88 1243.42 1043.23 1240.42 C 1002.42 1232.58 961.444 1213.13 928.312 1188.26 C 916.062 1179.06 905.142 1168.36 892.43 1159.74 C 892.234 1159.61 892.042 1159.48 891.849 1159.34 C 916.607 1214.43 956.82 1251.39 1013.53 1272.97 C 1040.58 1283.26 1071.38 1288.68 1099.93 1292.61 C 1109.35 1293.9 1121.67 1292.75 1130.48 1295.67 C 1132.12 1296.21 1133.27 1296.8 1133.97 1298.42 C 1134.58 1299.84 1134.81 1300.96 1135.01 1302.47 C 1132.44 1309.57 1134.08 1320.62 1134.32 1328.2 L 1134.44 1331.99 C 1134.95 1344.47 1135.66 1356.62 1137.93 1368.94 C 1138.25 1390.45 1142.98 1413.06 1147.79 1434.01 C 1162.18 1496.58 1183.62 1549.41 1214.63 1605.36 C 1233.14 1596.95 1252.35 1590.24 1270.86 1581.85 C 1315.59 1561.6 1365.18 1532.26 1402.19 1499.82 C 1426.43 1482.24 1466.4 1439.28 1485.23 1415.19 C 1485.28 1415.16 1485.34 1415.13 1485.39 1415.09 C 1493.19 1408.95 1500 1397.36 1506.12 1389.36 C 1557.28 1322.53 1592.62 1239.78 1609.52 1157.61 C 1640.05 1005.28 1609.16 847.054 1523.57 717.393 C 1435.74 583.58 1298.04 490.461 1141.14 458.788 C 1017.26 434.772 888.96 450.112 774.228 502.659 C 742.515 517.383 713.053 535.29 683.992 554.606 C 570.198 631.324 486.88 745.486 448.516 877.254 C 439.383 909.751 436.647 942.545 430.024 975.425 C 430.373 999.23 426.947 1022.84 427.509 1046.67 C 427.932 1064.6 428.897 1083.1 430.45 1100.97 C 431.396 1111.85 433.521 1122.57 434.024 1133.5 C 436.847 1142.49 437.976 1152.26 439.758 1161.52 C 442.14 1174.45 445.205 1187.26 448.941 1199.87 C 468.479 1267.58 494.222 1320.72 534.749 1378.32 C 545.359 1393.4 556.662 1410.09 570.92 1421.88 C 571.479 1408.8 573.129 1395.4 576.832 1382.83 C 582.953 1362.04 604.047 1318.4 603.62 1300.44 C 603.493 1295.12 601.003 1290.2 597.564 1286.24 C 586.265 1273.23 560.264 1261.39 546.057 1247.27 C 537.377 1238.64 528.866 1227.13 529.185 1214.35 C 530.084 1178.37 578.321 1163.53 602.771 1147.46 C 608.25 1143.85 612.816 1139.24 617.458 1134.65 C 619.296 1128.27 620.751 1122.14 621.371 1115.52 C 622.276 1105.86 623.334 1093.7 619.135 1084.68 C 612.968 1071.42 565.983 1054.25 549.641 1033.97 C 540.226 1022.29 538.299 1010.99 539.728 996.563 z M 1462.5 955.512 C 1465.87 956.139 1468.2 956.631 1471.5 955.566 C 1474.12 953.393 1474.95 951.365 1475.23 948.061 C 1476.18 936.852 1468.58 921.31 1461.1 913.236 C 1454.96 906.606 1448.25 903.175 1439.23 902.915 C 1438.3 902.888 1437.38 902.916 1436.45 902.935 C 1430.23 908.71 1424.9 914.21 1424.3 923.221 C 1423.83 930.313 1426.92 936.984 1431.61 942.162 C 1439.89 951.308 1450.6 954.673 1462.5 955.512 z M 1042.86 747.841 C 1015.08 750.591 994.859 775.463 997.845 803.224 C 1000.83 830.985 1025.88 850.988 1053.61 847.764 C 1081.01 844.579 1100.72 819.901 1097.77 792.473 C 1094.82 765.046 1070.31 745.124 1042.86 747.841 z"/>
<path transform="translate(0,0)" fill="rgb(115,62,174)" d="M 1696.15 685.17 C 1695.11 684.643 1694.9 684.62 1693.94 683.664 C 1686.04 675.767 1682.01 657.772 1683.62 647.315 C 1684.72 640.269 1688.59 629.361 1694.65 625.079 C 1687.21 639.794 1683.43 652.69 1688.84 669.061 C 1690.68 674.628 1693.54 679.933 1696.15 685.17 z"/>
<path transform="translate(0,0)" fill="rgb(115,62,174)" d="M 1043.23 1240.42 C 1045.12 1239 1096.31 1247.45 1102.89 1248.12 C 1125.08 1250.36 1146.51 1250.59 1168.72 1251.52 C 1182.64 1252.1 1196.54 1253.95 1210.46 1254.29 C 1226.17 1254.69 1242.05 1252.93 1257.72 1251.88 C 1265.93 1251.33 1274.31 1251.49 1282.48 1250.49 C 1295.71 1248.86 1309.79 1245.65 1322.65 1242.14 C 1328.63 1240.51 1335.33 1237.22 1341.45 1236.7 C 1342.03 1236.65 1342.62 1236.62 1343.2 1236.58 C 1304.38 1258.48 1211.42 1257.34 1166.71 1255.89 L 1160.18 1255.33 C 1126.64 1253.86 1095.08 1250.94 1062.08 1244.72 C 1055.85 1243.55 1048.88 1243.42 1043.23 1240.42 z"/>
<path transform="translate(0,0)" fill="rgb(115,62,174)" d="M 1320.34 1121.8 C 1362.4 1126.27 1408.18 1130.95 1450.45 1127.32 C 1440.52 1141.44 1431.61 1171.68 1417.57 1182.04 C 1417.49 1178.63 1422.73 1172.62 1424.64 1169.73 C 1432.9 1157.23 1438.78 1144.12 1445.57 1130.84 C 1413.87 1130.87 1347.47 1133.31 1320.34 1121.8 z"/>
<path transform="translate(0,0)" fill="rgb(101,103,202)" d="M 434.024 1133.5 C 432.591 1131.92 432.18 1130.92 431.86 1128.82 C 427.484 1100.06 423.794 1068.62 424.037 1039.54 C 424.138 1027.49 425.656 1015.42 426.489 1003.4 C 427.102 994.539 426.578 983.688 430.024 975.425 C 430.373 999.23 426.947 1022.84 427.509 1046.67 C 427.932 1064.6 428.897 1083.1 430.45 1100.97 C 431.396 1111.85 433.521 1122.57 434.024 1133.5 z"/>
</svg>