<?xml version="1.0" encoding="UTF-8"?>
<svg id="Layer_1" data-name="Layer 1" xmlns="http://www.w3.org/2000/svg" width="13.98103cm" height="14.85036cm" xmlns:xlink="http://www.w3.org/1999/xlink" viewBox="0 0 396.31268 420.95497">
  <defs>
    <linearGradient id="linear-gradient" x1="114.48705" y1="424.54907" x2="142.03644" y2="376.8323" gradientTransform="translate(0 447.88994) scale(1 -1)" gradientUnits="userSpaceOnUse">
      <stop offset=".7976" stop-color="#9d46d9"/>
      <stop offset="1" stop-color="#6382ef"/>
    </linearGradient>
    <linearGradient id="linear-gradient-2" x1="6.82209" y1="213.50674" x2="346.19229" y2="213.50674" gradientTransform="translate(0 447.88994) scale(1 -1)" gradientUnits="userSpaceOnUse">
      <stop offset="0" stop-color="#8594d9"/>
      <stop offset="1" stop-color="#6382ef"/>
    </linearGradient>
    <linearGradient id="linear-gradient-3" x1="79.59178" y1="278.59693" x2="354.27777" y2="278.59693" gradientTransform="translate(0 447.88994) scale(1 -1)" gradientUnits="userSpaceOnUse">
      <stop offset="0" stop-color="#9d46d9"/>
      <stop offset="1" stop-color="#6382ef"/>
    </linearGradient>
    <linearGradient id="linear-gradient-4" x1="112.87651" y1="422.83835" x2="140.42574" y2="375.12095" gradientTransform="translate(0 447.88994) scale(1 -1)" gradientUnits="userSpaceOnUse">
      <stop offset=".798" stop-color="#9d46d9"/>
      <stop offset="1" stop-color="#6382ef"/>
    </linearGradient>
    <linearGradient id="linear-gradient-5" x1="5.21111" y1="211.79634" x2="344.58111" y2="211.79634" xlink:href="#linear-gradient-2"/>
    <linearGradient id="linear-gradient-6" x1="218.17219" y1="359.2409" x2="373.34817" y2="359.2409" gradientTransform="translate(-3.04503 1.94553) rotate(-.73131)" xlink:href="#linear-gradient-3"/>
    <linearGradient id="linear-gradient-7" x1="608.27687" y1="127.50381" x2="759.80999" y2="127.50381" gradientTransform="translate(982.9675 434.07807) rotate(179.26869)" xlink:href="#linear-gradient-3"/>
  </defs>
  <polygon points="191.49679 36.56495 191.71829 31.91305 176.43328 12.41925 157.38249 6.43815 139.43928 12.41925 133.90129 46.97645 131.68609 52.51455 92.03388 38.11565 80.07169 43.21066 80.95779 68.68556 87.82498 102.35675 106.65418 73.33746 133.45829 52.51455 161.81298 43.21066 191.49679 36.56495" style="fill: url(#linear-gradient);"/>
  <polygon points="86.86499 107.23016 74.75518 98.96005 57.03349 95.12035 25.82679 132.31745 43.09129 157.80326 38.76079 181.03695 6.82209 194.65716 13.15139 243.30116 40.19789 246.05006 51.90059 267.41784 41.37939 297.44286 46.10519 308.07586 76.23199 335.54446 98.38409 320.18566 128.71018 331.58755 134.12278 361.24096 167.79399 373.64605 185.70259 372.20767 198.05909 351.17986 213.57499 371.87396 237.20388 367.73885 255.51629 358.58267 260.90328 328.81756 283.57568 316.05065 313.99789 324.91146 346.19229 287.10525 332.78698 264.83105 332.3103 230.39585 284.46179 256.38766 249.31379 279.42587 219.18688 297.73824 191.42289 302.75936 148.00479 295.07995 114.06599 273.57397 86.27429 236.00776 76.52738 199.08755 79.18559 139.71995 86.86499 107.23016" style="fill: url(#linear-gradient-2);"/>
  <path d="M153.13668,48.78555l-41.6459,24.3673-21.266,38.9877-10.633,58.0385.5169,53.3127,28.5762,45.4118,51.9836,31.08679,44.3042,2.21521,31.899-15.06342,25.6964-17.27859,15.94949-11.07599,33.22809-16.8356,34.55731-26.1395,7.97479-51.3929s-16.39261-27.4686-19.05081-27.91161-31.45599-13.7343-31.45599-13.7343l-4.8735-38.9877-26.58249-32.7851-63.798-14.6204-55.3802,12.4052-.00008-.00011Z" style="fill: url(#linear-gradient-3);"/>
  <path d="M132.56298,54.08355s0-38.5446,11.22369-45.6333,29.68381-5.7596,55.3802,28.3547" style="fill: none; stroke: #123a41; stroke-miterlimit: 10; stroke-width: 10px;"/>
  <path d="M173.87658,255.85235s36.77249,23.92429,88.6084,8.41779,81.07669-37.6586,88.16541-66.0132c1.26349-5.0538,9.33551-33.38899-8.03531-53.5437-9.37-10.8717-23.57529-15.4783-31.38599-17.1028-2.1188-.4407-3.7179-2.1695-3.96921-4.319-1.78271-15.2519-5.27271-35.2713-19.9646-56.618-1.311-1.9048-2.2417-3.2572-3.54431-4.8735-29.2881-36.3418-99.87061-24.104-103.22879-23.4812-15.91049,2.9508-52.2357,9.6877-76.6463,40.7599-16.5956,21.1246-19.7007,43.3348-23.9243,73.54489-3.0225,21.6194-5.913,42.29449,1.7722,67.7854,2.9522,9.7921,10.3868,33.3699,32.3421,53.16501,2.9936,2.6991,44.2639,38.66541,97.46921,25.69641,26.48019-6.45459,48.81689-28.68579,56.56171-36.77249" style="fill: none; stroke: #16393f; stroke-miterlimit: 10; stroke-width: 10px;"/>
  <path d="M336.84219,223.73176l-6.1666,32.3745c-.586,3.0766.1835,6.2565,2.11139,8.72479l12.58429,16.11169c2.26331,2.89771,2.20441,6.9801-.14151,9.81131l-25.5795,30.8718c-2.7818,3.35739-7.4086,4.54239-11.46191,2.9357l-21.67981-8.59381c-2.69379-1.06781-5.742-.72769-8.13431.9075l-17.4711,11.94229c-1.28271.8768-2.08069,2.30389-2.15601,3.8558l-1.12689,23.21481c-.13779,2.8392-2.0603,5.2789-4.7885,6.077l-33.4366,9.78079c-3.17641.9292-6.5744-.452-8.2018-3.3338l-9.71449-17.20279c-.7478-1.32419-2.64931-1.34061-3.4198-.02939l-12.35651,21.0278c-1.6424,2.79489-4.875,4.24271-8.05389,3.6069l-40.57361-8.11472c-1.6833-.3367-2.9334-1.7579-3.05251-3.4704l-1.9166-27.55161c-.1515-2.1781-1.4429-4.11389-3.3958-5.0903l-23.1957-11.5979c-.8884-.44421-1.9373-.42831-2.8118.0426l-25.3028,13.6246c-2.3839,1.28369-5.3283.84531-7.235-1.07709l-29.2127-29.4541c-1.9678-1.9841-2.4107-5.0199-1.0918-7.48349l11.8183-22.07559c1.02-1.90521,1.1019-4.1749.222-6.14871l-9.4127-21.11501c-.0747-.1676-.234-.2818-.4166-.2989l-28.9199-2.7028c-1.3842-.12939-2.4793-1.22729-2.6052-2.6118l-3.9128-43.04041c-.1775-1.9528.9709-3.7838,2.8062-4.47411l27.9467-10.5121c.7092-.2668,1.2294-.882,1.3745-1.6257l4.4403-22.7565c.0331-.1694-.0047-.3403-.1098-.4772-1.7269-2.2516-16.7079-21.86771-17.2645-25.48579-.5258-3.4175,26.5578-33.5084,32.5203-40.08459.6856-.7562,1.7786-.9856,2.7106-.5694l24.5613,10.9701s-14.325-55.2326-2.0675-64.0934c12.2575-8.8608,46.5194,17.2786,46.5194,17.2786" style="fill: none; stroke: #16393f; stroke-miterlimit: 10; stroke-width: 10px;"/>
  <ellipse cx="184.82778" cy="128.70095" rx="14.16521" ry="21.9834" style="fill: #143840;"/>
  <ellipse cx="306.94558" cy="170.87756" rx="6.9892" ry="6.9088" style="fill: #143840;"/>
  <ellipse cx="271.80227" cy="126.72935" rx="13.1463" ry="18.27329" style="fill: #143840;"/>
  <path d="M261.3497,90.76386s17.50021-3.9874,23.92429,5.7595" style="fill: none; stroke: #143840; stroke-linecap: round; stroke-linejoin: round; stroke-width: 10px;"/>
  <polygon points="189.88511 38.2756 190.10711 33.6236 174.8221 14.1296 155.77111 8.1486 137.82811 14.1296 132.2901 48.68661 130.07511 54.2246 90.42211 39.82661 78.46011 44.9216 79.34611 70.3956 86.21411 104.06761 105.04311 75.0476 131.84711 54.2246 160.20211 44.9216 189.88511 38.2756" style="fill: url(#linear-gradient-4);"/>
  <polygon points="85.25411 108.94061 73.14411 100.6706 55.42211 96.83061 24.21511 134.02761 41.48011 159.5136 37.14911 182.74761 5.21111 196.3676 11.54011 245.0116 38.58711 247.76061 50.28911 269.1286 39.76811 299.1536 44.49411 309.78659 74.62111 337.25461 96.77311 321.89661 127.09911 333.29761 132.51111 362.9516 166.18311 375.3566 184.09112 373.91861 196.44811 352.8906 211.96412 373.5846 235.59311 369.44962 253.90511 360.29361 259.2921 330.52759 281.9641 317.7616 312.3861 326.62162 344.58111 288.81562 331.17611 266.5416 330.69912 232.1066 282.85012 258.0986 247.70211 281.1366 217.57511 299.44861 189.81211 304.46961 146.39312 296.79059 112.45511 275.28461 84.66311 237.7186 74.91611 200.7986 77.57411 141.43061 85.25411 108.94061" style="fill: url(#linear-gradient-5);"/>
  <path d="M130.95211,55.7946s0-38.545,11.224-45.633,29.68401-5.76,55.38,28.355" style="fill: none; stroke: #123a41; stroke-miterlimit: 10; stroke-width: 10px;"/>
  <path d="M172.26511,257.56261s36.772,23.924,88.60802,8.41801c51.836-15.50598,81.077-37.659,88.16501-66.013,1.263-5.054,9.33499-33.38901-8.035-53.54401-9.37-10.87199-23.57501-15.478-31.38599-17.103-2.11899-.441-3.71799-2.169-3.96899-4.319-1.78299-15.252-5.27301-35.271-19.965-56.618-1.311-1.905-2.242-3.257-3.54401-4.873-29.28799-36.342-99.871-24.104-103.229-23.481-15.911,2.951-52.236,9.688-76.646,40.75999-16.596,21.125-19.701,43.335-23.924,73.545-3.023,21.619-5.913,42.29399,1.772,67.785,2.952,9.79201,10.387,33.37,32.342,53.16499,2.994,2.69901,44.26399,38.66501,97.46901,25.69601,26.48-6.45499,48.81699-28.686,56.56201-36.772" style="fill: none; stroke: #16393f; stroke-miterlimit: 10; stroke-width: 10px;"/>
  <path d="M335.2311,225.4426l-6.16699,32.375c-.586,3.077.18399,6.25699,2.11099,8.72501l12.58401,16.112c2.263,2.89801,2.20401,6.98001-.14099,9.811l-25.57901,30.87201c-2.78201,3.35699-7.409,4.54199-11.46201,2.936l-21.67999-8.59399c-2.694-1.06799-5.742-.728-8.134.90701l-17.47101,11.94199c-1.28299.87701-2.08099,2.30399-2.15601,3.85599l-1.12701,23.215c-.138,2.83899-2.06,5.27899-4.78799,6.077l-33.437,9.78101c-3.17599.92899-6.57401-.452-8.202-3.33401l-9.714-17.203c-.748-1.32401-2.649-1.341-3.42-.02899l-12.35699,21.02798c-1.642,2.79501-4.875,4.24301-8.054,3.60699l-40.57401-8.11499c-1.683-.33701-2.933-1.758-3.05299-3.47l-1.91701-27.552c-.15199-2.17801-1.44299-4.11401-3.396-5.09l-23.196-11.59799c-.888-.444-1.937-.42801-2.812.043l-25.303,13.625c-2.384,1.284-5.328.845-7.235-1.077l-29.213-29.45401c-1.968-1.98401-2.411-5.01999-1.092-7.48401l11.818-22.07599c1.02-1.905,1.102-4.17499.222-6.14899l-9.413-21.11501c-.075-.168-.234-.282-.417-.299l-28.92-2.703c-1.384-.129-2.479-1.22701-2.605-2.612l-3.913-43.04001c-.178-1.953.971-3.784,2.806-4.474l27.947-10.51199c.709-.267,1.229-.882,1.374-1.62601l4.44-22.757c.033-.16901-.005-.34-.11-.47701-1.727-2.252-16.708-21.868-17.265-25.48599-.526-3.41701,26.558-33.508,32.52-40.085.686-.756,1.779-.986,2.711-.569l24.561,10.97s-14.325-55.233-2.068-64.093,46.519,17.279,46.519,17.279" style="fill: none; stroke: #16393f; stroke-miterlimit: 10; stroke-width: 10px;"/>
  <ellipse cx="183.21612" cy="130.41161" rx="14.16499" ry="21.983" style="fill: #143840;"/>
  <ellipse cx="270.19112" cy="128.4396" rx="13.146" ry="18.273" style="fill: #143840;"/>
  <path d="M157.85303,90.02306s18.87875-.65386,33.87807-.34738" style="fill: none; stroke: #143840; stroke-linecap: round; stroke-linejoin: round; stroke-width: 10px;"/>
  <path d="M259.73812,92.4746s17.5-3.987,23.92401,5.76" style="fill: none; stroke: #143840; stroke-linecap: round; stroke-linejoin: round; stroke-width: 10px;"/>
  <path d="M219.65764,215.02242s28.43754-10.98233,57.99221-16.18232" style="fill: none; stroke: #143840; stroke-linecap: round; stroke-linejoin: round; stroke-width: 10px;"/>
  <g>
    <path d="M220.05086,386.09693s-.44414,18.77353,21.14528,18.49795c21.58942-.27558,122.16014-1.55931,122.16014-1.55931,0,0,12.37793-.158,11.86594-17.71372-.38835-13.31619-.74144-49.82286-.88932-66.67828-.04239-4.83104-4.00292-8.69061-8.83375-8.62894l-136.40159,1.7411c-4.75123.06065-8.57991,3.9129-8.6114,8.66441l-.43529,65.6768Z" style="fill: url(#linear-gradient-6); stroke: #143840; stroke-miterlimit: 10; stroke-width: 7px;"/>
    <path d="M299.53174,348.25849l71.37503-30.55882c2.98332-1.27727,2.92936-5.37619-.08645-6.57463l-72.45802-28.7945c-.92898-.36922-1.97397-.35904-2.89582.02809l-71.65048,30.09084c-2.99693,1.25865-2.96734,5.36591.04752,6.5789l72.73334,29.26248c.94095.37861,2.00246.36689,2.93487-.03235Z" style="fill: url(#linear-gradient-7); stroke: #143840; stroke-miterlimit: 10; stroke-width: 7px;"/>
    <circle cx="354.37384" cy="379.01613" r="38.93877" style="fill: #ff9800; stroke: #fff; stroke-miterlimit: 10; stroke-width: 6px;"/>
    <text transform="translate(344.5938 395.2986) rotate(-.73131)" style="fill: #fff; font-family: AcuminConcept-Medium, &apos;Acumin Variable Concept&apos;; font-size: 54.18776px; font-variation-settings: &apos;wght&apos; 500, &apos;wdth&apos; 100, &apos;slnt&apos; 0; font-weight: 500;"><tspan x="0" y="0">!</tspan></text>
  </g>
</svg>