<?xml version="1.0" encoding="UTF-8"?>
<svg id="Layer_1" data-name="Layer 1" xmlns="http://www.w3.org/2000/svg" width="383.462" height="395.5831" xmlns:xlink="http://www.w3.org/1999/xlink" viewBox="0 0 383.462 395.5831">
  <defs>
    <linearGradient id="linear-gradient" x1="6.2035" y1="194.6256" x2="363.261" y2="194.6256" gradientUnits="userSpaceOnUse">
      <stop offset="0" stop-color="#9d46d9"/>
      <stop offset="1" stop-color="#6382ef"/>
    </linearGradient>
    <linearGradient id="linear-gradient-2" x1="301.1217" y1="202.3643" x2="83.7888" y2="202.3643" gradientUnits="userSpaceOnUse">
      <stop offset="0" stop-color="#98a3d9"/>
      <stop offset="1" stop-color="#f8ad30"/>
    </linearGradient>
  </defs>
  <path d="M362.9443,227.1235l.3167-59.6341-32.9842-7.3298-15.6098-40.857,16.017-30.541-36.9658-38.5041-32.1698,18.5508-30.4052-15.7456-14.1166-34.7488-52.1232-3.2577-14.1167,36.9206-30.9482,10.316-5.9724,3.1333-35.4501-16.3676-43.0077,37.0024,21.1087,31.8617-15.2026,41.2642-32.939,6.5154-2.1718,58.0956,33.8439,7.2393,17.9174,41.2642-16.4695,27.1475,36.7396,43.2551,33.1939-15.4505,35.4892,11.3783,11.1304,33.3914,56.4669,2.1718,8.3252-34.6583,39.8163-15.3836,33.12,16.6505,37.1016-38.7305-17.1934-32.215,16.8315-39.4544,30.4278-3.2803ZM187.2116,304.1112c-59.9762,0-108.592-48.6158-108.592-108.592s48.6158-108.592,108.592-108.592,108.592,48.628,108.592,108.592-48.6158,108.592-108.592,108.592Z" style="fill: url(#linear-gradient);"/>
  <polygon points="159.8056 15.569 214.4022 14.1868 225.4598 50.8149 260.7057 64.6369 294.5694 44.5951 337.4173 87.443 319.4489 119.9246 332.5797 157.2438 367.8256 164.8458 367.8256 227.0445 333.9619 233.2644 319.4489 269.2014 339.4906 302.374 295.2605 345.222 263.47 326.5624 227.533 340.3843 216.4755 377.7035 157.7323 376.3213 148.057 341.7665 111.4288 327.2535 78.2562 346.6042 37.4815 300.3007 54.0678 270.5836 38.1726 235.3377 5.6911 224.9712 5 162.7726 38.1726 154.4794 52.6856 117.8513 35.4082 86.0609 80.3295 43.904 112.811 66.7101 146.6748 50.8149 159.8056 15.569" style="fill: none; stroke: #143840; stroke-linecap: round; stroke-linejoin: round; stroke-width: 10px;"/>
  <path d="M295.3594,196.4199c0,59.9762-48.6158,108.592-108.592,108.592s-108.592-48.6158-108.592-108.592,48.6158-108.592,108.592-108.592,108.592,48.628,108.592,108.592Z" style="fill: none; stroke: #143840; stroke-linecap: round; stroke-linejoin: round; stroke-width: 10px;"/>
  <path d="M83.7888,307.5479l36.9206-86.51,114.7434-107.5041s35.4727-30.0432,52.8471-8.6872c17.3744,21.356,6.1534,7.6013,6.1534,7.6013,0,0,22.08,17.7364-14.1167,54.657-36.1967,36.9206-112.9336,111.8477-112.9336,111.8477l-83.6143,28.5954Z" style="fill: url(#linear-gradient-2);"/>
  <polygon points="125.415 226.9198 167.2222 272.5276 93.7429 299.8561 102.3396 260.3112 125.415 226.9198" style="fill: #edc98b;"/>
  <path d="M82.703,307.5479l39.4543-87.596,132.8418-120.8969s20.6321-13.0308,39.0924,13.0308c0,0,20.9941,21.718,7.2393,35.4728l-123.7926,124.8785-92.3015,38.0065-2.5337-2.8957Z" style="fill: none; stroke: #214d58; stroke-miterlimit: 10; stroke-width: 10px;"/>
  <path d="M125.596,222.3952c15.4439,16.4092,30.8878,32.8183,46.3317,49.2275" style="fill: none; stroke: #214d58; stroke-miterlimit: 10; stroke-width: 10px;"/>
  <path d="M110.2689,294.9131c.6323-6.4012-5.9658-13.4068-11.221-13.0308-8.0654.577-13.9064,18.6088-9.4112,22.8039,4.0342,3.7649,19.7172-.5118,20.6321-9.7731Z" style="fill: #214d58;"/>
  <polyline points="148.3999 247.009 258.0758 145.6583 234.4126 120.813 277.622 164.4806" style="fill: none; stroke: #214d58; stroke-miterlimit: 10; stroke-width: 10px;"/>
</svg>

